<svg version="1.1" viewBox="0.0 0.0 960.0 720.0" fill="none" stroke="none" stroke-linecap="square" stroke-miterlimit="10" xmlns:xlink="http://www.w3.org/1999/xlink" xmlns="http://www.w3.org/2000/svg"><clipPath id="p.0"><path d="m0 0l960.0 0l0 720.0l-960.0 0l0 -720.0z" clip-rule="nonzero"/></clipPath><g clip-path="url(#p.0)"><path fill="#ffffff" d="m0 0l960.0 0l0 720.0l-960.0 0z" fill-rule="evenodd"/><path fill="#000000" fill-opacity="0.0" d="m788.61096 284.87482l0 0c-2.3308716 64.42163 -59.96277 114.62918 -128.72437 112.141754l0 0c-68.76166 -2.4874573 -122.61438 -56.727997 -120.28351 -121.14963l0 0c2.3309326 -64.421616 59.96283 -114.62918 128.72443 -112.14172l0 0c68.76166 2.4874573 122.61438 56.72798 120.28345 121.1496z" fill-rule="evenodd"/><path stroke="#112113" stroke-width="4.0" stroke-linejoin="round" stroke-linecap="butt" stroke-dasharray="4.0,12.0" d="m788.61096 284.87482l0 0c-2.3308716 64.42163 -59.96277 114.62918 -128.72437 112.141754l0 0c-68.76166 -2.4874573 -122.61438 -56.727997 -120.28351 -121.14963l0 0c2.3309326 -64.421616 59.96283 -114.62918 128.72443 -112.14172l0 0c68.76166 2.4874573 122.61438 56.72798 120.28345 121.1496z" fill-rule="evenodd"/><path fill="#000000" fill-opacity="0.0" d="m559.19257 280.37158l0 0c0 -54.28917 46.971375 -98.299225 104.91339 -98.299225l0 0c57.942078 0 104.91339 44.010056 104.91339 98.299225l0 0c0 54.289154 -46.971313 98.299194 -104.91339 98.299194l0 0c-57.942017 0 -104.91339 -44.01004 -104.91339 -98.299194z" fill-rule="evenodd"/><path stroke="#112113" stroke-width="4.0" stroke-linejoin="round" stroke-linecap="butt" stroke-dasharray="4.0,12.0" d="m559.19257 280.37158l0 0c0 -54.28917 46.971375 -98.299225 104.91339 -98.299225l0 0c57.942078 0 104.91339 44.010056 104.91339 98.299225l0 0c0 54.289154 -46.971313 98.299194 -104.91339 98.299194l0 0c-57.942017 0 -104.91339 -44.01004 -104.91339 -98.299194z" fill-rule="evenodd"/><path fill="#000000" fill-opacity="0.0" d="m745.7188 291.75314l0 0c-5.8881226 42.251984 -47.204834 71.40634 -92.28345 65.11813l0 0c-45.078613 -6.2882385 -76.848816 -45.637817 -70.96063 -87.88977l0 0c5.8881226 -42.25197 47.204834 -71.40633 92.28345 -65.11812l0 0c45.078613 6.2882233 76.848755 45.637817 70.96063 87.889755z" fill-rule="evenodd"/><path stroke="#112113" stroke-width="4.0" stroke-linejoin="round" stroke-linecap="butt" stroke-dasharray="4.0,12.0" d="m745.7188 291.75314l0 0c-5.8881226 42.251984 -47.204834 71.40634 -92.28345 65.11813l0 0c-45.078613 -6.2882385 -76.848816 -45.637817 -70.96063 -87.88977l0 0c5.8881226 -42.25197 47.204834 -71.40633 92.28345 -65.11812l0 0c45.078613 6.2882233 76.848755 45.637817 70.96063 87.889755z" fill-rule="evenodd"/><path fill="#000000" fill-opacity="0.0" d="m94.14305 272.1788l661.19684 0l0 219.77954l-661.19684 0z" fill-rule="evenodd"/><path fill="#2c5532" d="m345.3863 309.1267q-3.515625 0 -3.515625 -2.875q3.40625 -0.75 5.75 -1.8125q2.359375 -1.0625 4.0625 -2.234375q-3.84375 -2.03125 -3.84375 -5.015625q0 -2.453125 2.125 -4.640625q2.140625 -2.1875 4.59375 -2.1875q1.8125 0 2.984375 1.703125q1.28125 1.703125 1.28125 5.34375q0 1.375 -0.53125 2.546875l3.3125 0.21875q0 1.703125 -1.171875 2.515625q-1.171875 0.796875 -3.625 0.796875l-0.96875 -0.109375q-2.65625 2.65625 -5.484375 4.203125q-2.828125 1.546875 -4.96875 1.546875zm9.390625 -10.015625l0.21875 -0.4375q0.203125 -0.421875 0.203125 -0.734375q0 -0.328125 0 -0.53125q0 -1.5 -0.59375 -2.34375q-0.578125 -0.859375 -1.328125 -0.859375q-0.640625 0 -1.234375 0.421875q-0.578125 0.421875 -0.578125 0.96875q0 2.125 3.3125 3.515625zm6.7233276 30.181885q-2.25 -1.8125 -4.0625 -3.40625q-1.8125 -1.609375 -3.296875 -3.203125q2.015625 -1.8125 3.78125 -3.671875q1.765625 -1.875 3.359375 -3.796875q0.953125 1.0625 2.65625 2.671875q1.71875 1.59375 4.0625 3.9375q-2.875 3.953125 -6.5 7.46875zm-14.296875 1.59375q-2.34375 -1.8125 -4.15625 -3.515625q-1.8125 -1.703125 -3.203125 -3.203125q1.8125 -1.8125 3.625 -3.671875q1.8125 -1.875 3.625 -3.6875q0.96875 1.078125 2.609375 2.78125q1.65625 1.703125 4.0 3.84375q-1.375 1.90625 -2.984375 3.78125q-1.59375 1.859375 -3.515625 3.671875zm33.69687 51.738953q-6.5 0 -10.453125 -2.078125q-3.9375 -2.09375 -4.6875 -5.828125l-0.953125 -3.9375l-4.265625 8.75q-2.25 -0.21875 -4.21875 -0.484375q-1.96875 -0.265625 -3.734375 -0.640625q-1.765625 -0.375 -3.46875 -0.90625q-2.65625 -0.96875 -5.328125 -2.5625q-2.671875 -1.59375 -4.484375 -3.296875q-1.8125 -1.71875 -1.8125 -2.890625q0 -0.84375 0.6875 -3.140625q0.703125 -2.296875 1.65625 -4.859375q0.96875 -2.5625 1.71875 -3.84375q0.953125 -2.125 4.046875 -4.6875q2.984375 -2.65625 6.828125 -5.15625q3.84375 -2.515625 6.5 -3.6875l-0.53125 -4.265625q2.78125 -2.140625 4.53125 -3.421875q1.765625 -1.28125 3.25 -2.28125q1.5 -1.015625 3.3125 -2.09375q0 8.96875 0 17.921875q0 8.953125 0 17.921875q5.125 2.875 11.40625 2.875q0.859375 0 0.859375 0.859375l0 10.875q0 0.859375 -0.859375 0.859375zm-17.171875 -15.796875q-0.640625 -2.5625 -1.390625 -6.015625q-0.734375 -3.46875 -1.703125 -7.84375q-9.90625 3.3125 -15.5625 8.640625q3.40625 2.34375 6.5 3.25q3.09375 0.90625 5.875 1.328125q1.484375 0.21875 3.03125 0.375q1.546875 0.15625 3.25 0.265625zm29.017487 -54.502075l0.640625 -5.328125q7.25 -2.765625 11.828125 -4.53125q4.59375 -1.765625 7.46875 -3.140625l0.109375 1.375q0 2.890625 -2.453125 4.484375q-2.65625 1.390625 -7.09375 3.203125q-4.421875 1.8125 -10.5 3.9375zm18.669556 20.379578q-2.25 -1.8125 -4.0625 -3.40625q-1.8125 -1.609375 -3.296875 -3.203125q2.015625 -1.8125 3.78125 -3.671875q1.765625 -1.875 3.359375 -3.796875q0.953125 1.0625 2.65625 2.671875q1.71875 1.59375 4.0625 3.9375q-2.875 3.953125 -6.5 7.46875zm-14.296875 1.59375q-2.34375 -1.8125 -4.15625 -3.515625q-1.8125 -1.703125 -3.203125 -3.203125q1.8125 -1.8125 3.625 -3.671875q1.8125 -1.875 3.625 -3.6875q0.96875 1.078125 2.609375 2.78125q1.65625 1.703125 4.0 3.84375q-1.375 1.90625 -2.984375 3.78125q-1.59375 1.859375 -3.515625 3.671875zm-17.063324 48.325623q-0.96875 0 -0.96875 -0.96875l0 -10.65625q0 -0.96875 0.96875 -0.96875q1.8125 0 3.671875 -0.046875q1.875 -0.0625 3.796875 -0.0625q-1.609375 -2.5625 -1.609375 -4.90625q0 -1.375 0.265625 -3.71875q0.265625 -2.359375 0.75 -4.484375q0.484375 -2.140625 0.90625 -2.984375q2.03125 -3.640625 4.953125 -6.5625q2.9375 -2.9375 6.34375 -4.640625q3.421875 -1.703125 6.625 -1.703125q2.875 0 5.8125 3.203125q2.9375 3.1875 4.75 8.203125q1.8125 5.125 1.8125 9.484375q0 4.171875 -2.34375 8.109375q2.234375 0 4.515625 0.0625q2.296875 0.046875 4.546875 0.046875q0.84375 0 0.84375 0.859375l0 10.875q0 0.859375 -0.84375 0.859375q-13.546875 0 -22.828125 -3.53125q-4.90625 2.03125 -10.140625 2.78125q-5.21875 0.75 -11.828125 0.75zm21.546875 -12.265625q6.5 -1.8125 10.546875 -5.234375q-0.734375 -2.875 -2.28125 -5.640625q-1.546875 -2.78125 -3.046875 -4.171875q-1.0625 -1.28125 -2.234375 -1.28125q-1.8125 0 -3.890625 1.125q-2.078125 1.125 -4.328125 3.3125q-2.234375 2.171875 -4.6875 5.484375q1.921875 2.234375 4.578125 3.890625q2.671875 1.65625 5.34375 2.515625zm22.392822 -64.54001l0.640625 -5.328125q7.25 -2.765625 11.828125 -4.53125q4.59375 -1.765625 7.46875 -3.140625l0.109375 1.375q0 2.890625 -2.453125 4.484375q-2.65625 1.390625 -7.09375 3.203125q-4.421875 1.8125 -10.5 3.9375zm-0.106658936 76.80563q-0.859375 0 -0.859375 -0.859375l0 -10.875q0 -0.859375 0.859375 -0.859375q2.5625 0 5.0625 -0.53125q2.515625 -0.53125 4.859375 -1.5q-1.171875 -7.5625 -2.40625 -16.40625q-1.21875 -8.859375 -2.390625 -19.0q-0.4375 -3.40625 -0.8125 -7.03125q-0.359375 -3.625 -0.796875 -7.46875q2.890625 -2.140625 6.078125 -3.84375q3.203125 -1.703125 6.625 -3.203125q-0.109375 3.953125 -0.28125 10.9375q-0.15625 6.984375 -0.3125 15.46875q-0.15625 8.46875 -0.265625 17.21875q0 4.59375 0 7.3125q0 2.71875 0 5.0625q4.484375 2.984375 11.625 2.984375q0.953125 0 0.953125 0.859375l0 10.875q0 0.859375 -0.953125 0.859375q-8.859375 0 -13.125 -3.734375q-2.34375 1.484375 -6.03125 2.609375q-3.671875 1.125 -7.828125 1.125zm47.5708 -62.618958l0.640625 -5.328125q7.25 -2.765625 11.828125 -4.53125q4.59375 -1.765625 7.46875 -3.140625l0.109375 1.375q0 2.890625 -2.453125 4.484375q-2.65625 1.390625 -7.09375 3.203125q-4.421875 1.8125 -10.5 3.9375zm-21.440002 62.618958q-0.859375 0 -0.859375 -0.859375l0 -10.875q0 -0.859375 0.859375 -0.859375q7.78125 0 13.21875 -0.265625q5.453125 -0.265625 10.5625 -1.765625q4.59375 -1.375 7.84375 -2.234375q3.25 -0.859375 5.0625 -1.28125q-1.484375 -0.84375 -2.9375 -1.75q-1.4375 -0.921875 -2.8125 -1.875q-3.421875 -2.34375 -5.71875 -3.25q-2.28125 -0.90625 -4.640625 -0.90625q-3.1875 0 -6.078125 0.90625q-2.875 0.90625 -6.5 3.25q-0.953125 -0.953125 -1.703125 -2.8125q-0.75 -1.875 -0.75 -3.578125q0 -4.703125 4.15625 -7.625q4.15625 -2.9375 10.453125 -2.9375q3.421875 0 6.5625 1.171875q3.140625 1.171875 7.09375 3.84375q4.796875 3.296875 8.84375 5.28125q4.0625 1.96875 9.609375 3.453125q2.765625 0.640625 6.0625 1.015625q3.3125 0.375 7.265625 0.375l-5.546875 11.3125q-3.3125 -0.328125 -5.5 -0.53125q-2.171875 -0.21875 -5.171875 -0.015625q-2.453125 0.21875 -5.234375 1.078125q-2.765625 0.84375 -5.53125 2.125q-2.765625 1.28125 -5.4375 2.78125q-4.15625 2.453125 -7.625 3.84375q-3.46875 1.375 -7.09375 2.015625q-3.625 0.640625 -8.0625 0.8125q-4.421875 0.15625 -10.390625 0.15625z" fill-rule="nonzero"/><path fill="#112113" d="m198.62334 478.9339l0.359375 -2.9375q3.984375 -1.53125 6.5 -2.5q2.53125 -0.96875 4.109375 -1.71875l0.0625 0.75q0 1.59375 -1.359375 2.46875q-1.453125 0.765625 -3.890625 1.75q-2.4375 1.0 -5.78125 2.1875zm8.327576 -43.292297q-1.234375 -1.0 -2.234375 -1.875q-0.984375 -0.875 -1.8125 -1.765625q1.109375 -0.984375 2.078125 -2.015625q0.96875 -1.03125 1.859375 -2.078125q0.515625 0.578125 1.453125 1.46875q0.9375 0.875 2.234375 2.15625q-1.578125 2.171875 -3.578125 4.109375zm-7.859375 0.890625q-1.296875 -1.0 -2.296875 -1.9375q-0.984375 -0.9375 -1.75 -1.765625q1.0 -1.0 1.984375 -2.015625q1.0 -1.03125 2.0 -2.03125q0.53125 0.59375 1.4375 1.53125q0.90625 0.9375 2.203125 2.109375q-0.765625 1.046875 -1.640625 2.078125q-0.875 1.03125 -1.9375 2.03125zm18.532501 28.435333q-3.578125 0 -5.75 -1.140625q-2.171875 -1.140625 -2.578125 -3.203125l-0.53125 -2.15625l-2.34375 4.796875q-1.234375 -0.109375 -2.328125 -0.25q-1.078125 -0.15625 -2.046875 -0.359375q-0.953125 -0.203125 -1.90625 -0.5q-1.453125 -0.53125 -2.921875 -1.40625q-1.46875 -0.875 -2.46875 -1.8125q-1.0 -0.953125 -1.0 -1.59375q0 -0.46875 0.375 -1.71875q0.390625 -1.265625 0.921875 -2.671875q0.53125 -1.40625 0.9375 -2.109375q0.53125 -1.1875 2.234375 -2.59375q1.640625 -1.46875 3.75 -2.84375q2.109375 -1.375 3.578125 -2.015625l-0.296875 -2.34375q1.53125 -1.171875 2.5 -1.875q0.96875 -0.71875 1.78125 -1.265625q0.828125 -0.5625 1.8125 -1.140625q0 4.921875 0 9.859375q0 4.921875 0 9.84375q2.828125 1.578125 6.28125 1.578125q0.46875 0 0.46875 0.46875l0 5.984375q0 0.46875 -0.46875 0.46875zm-9.4375 -8.671875q-0.359375 -1.40625 -0.765625 -3.3125q-0.40625 -1.90625 -0.9375 -4.3125q-5.453125 1.8125 -8.5625 4.75q1.875 1.28125 3.578125 1.78125q1.703125 0.5 3.21875 0.734375q0.828125 0.125 1.671875 0.21875q0.859375 0.078125 1.796875 0.140625zm14.719925 -25.512787l0.359375 -2.9375q3.984375 -1.53125 6.5 -2.5q2.53125 -0.96875 4.109375 -1.71875l0.0625 0.75q0 1.59375 -1.359375 2.46875q-1.453125 0.765625 -3.890625 1.765625q-2.4375 0.984375 -5.78125 2.171875zm2.93779 6.2186584q-1.296875 0 -2.0 -0.703125q-0.703125 -0.71875 -0.703125 -1.9375q0 -1.234375 0.828125 -2.640625l1.21875 0.28125q-0.171875 0.53125 -0.171875 1.46875q0 1.359375 0.9375 1.359375q0.46875 0 0.8125 -0.4375q0.359375 -0.453125 0.3125 -1.09375l-0.125 -1.8125l1.765625 -1.125q0.234375 1.875 0.640625 2.59375q0.40625 0.703125 1.296875 0.703125q0.234375 0 0.4375 -0.140625q0.203125 -0.15625 0.3125 -0.390625q-0.109375 -0.65625 -0.8125 -2.109375l-0.125 -0.46875q0 -0.59375 0.5 -1.09375q0.5 -0.5 1.4375 -0.671875q0.59375 1.0625 0.796875 2.125q0.203125 1.046875 0.203125 1.515625q0 1.40625 -0.90625 2.40625q-0.90625 0.984375 -2.203125 0.984375q-1.0625 0 -1.765625 -0.515625q-0.8125 1.703125 -2.6875 1.703125zm6.3871307 39.753143q-1.234375 -1.0 -2.234375 -1.875q-0.984375 -0.875 -1.8125 -1.765625q1.109375 -0.984375 2.078125 -2.015625q0.96875 -1.03125 1.859375 -2.078125q0.515625 0.578125 1.453125 1.453125q0.9375 0.890625 2.234375 2.171875q-1.578125 2.171875 -3.578125 4.109375zm-7.859375 0.890625q-1.296875 -1.0 -2.296875 -1.9375q-0.984375 -0.9375 -1.75 -1.765625q1.0 -1.0 1.984375 -2.03125q1.0 -1.015625 2.0 -2.015625q0.53125 0.59375 1.4375 1.53125q0.90625 0.9375 2.203125 2.109375q-0.765625 1.046875 -1.640625 2.078125q-0.875 1.03125 -1.9375 2.03125zm-7.2735443 -12.677765q-0.46875 0 -0.46875 -0.46875l0 -5.984375q0 -0.46875 0.46875 -0.46875q2.8125 0 5.1875 -0.140625q2.375 -0.15625 3.90625 -0.90625q1.171875 -0.59375 1.78125 -1.609375q0.625 -1.03125 1.5625 -2.90625q0.9375 -1.9375 1.640625 -2.375q0.703125 -0.453125 1.640625 -0.453125q1.40625 0 2.34375 0.828125q-0.53125 1.296875 -1.0 2.375q-0.46875 1.078125 -0.84375 2.0q-0.375 0.90625 -0.734375 1.671875q1.40625 0.75 2.953125 1.140625q1.5625 0.375 3.203125 0.375q0.46875 0 0.46875 0.46875l0 5.984375q0 0.46875 -0.46875 0.46875q-4.453125 0 -8.5 -4.046875l-0.46875 0.765625q-1.109375 1.40625 -2.765625 2.109375q-1.640625 0.703125 -4.046875 0.9375q-2.40625 0.234375 -5.859375 0.234375zm31.030914 13.966339l0.359375 -2.9375q3.984375 -1.53125 6.5 -2.5q2.5312653 -0.96875 4.1093903 -1.71875l0.0625 0.75q0 1.59375 -1.359375 2.46875q-1.453125 0.765625 -3.8906403 1.75q-2.4375 1.0 -5.78125 2.1875zm11.616592 -13.435089q-2.578125 0 -5.2500153 -0.40625q-2.671875 -0.421875 -5.078125 -1.171875q-2.40625 -0.765625 -4.28125 -1.703125q-1.40625 1.46875 -3.0 2.109375q-1.578125 0.640625 -3.921875 0.640625q-0.46875 0 -0.46875 -0.46875l0 -5.984375q0 -0.46875 0.46875 -0.46875q2.40625 0 4.1875 -1.078125q1.796875 -1.09375 2.90625 -3.265625q0.703125 -1.40625 1.3125 -2.546875q0.625 -1.140625 1.15625 -1.984375q0.53125 -0.859375 0.9375 -1.4375q1.46875 -2.0 2.75 -2.84375q1.296875 -0.859375 3.0 -0.859375q2.1093903 0 4.1250153 2.203125q2.03125 2.203125 3.328125 5.828125q1.28125 3.53125 1.28125 6.8125q0 1.515625 -1.0625 3.515625q-1.046875 2.0 -2.390625 3.109375zm-1.9375 -6.453125q-0.234375 -2.171875 -0.9375 -4.015625q-0.703125 -1.84375 -1.5937653 -2.96875q-0.9375 -1.109375 -1.6875 -1.109375q-1.296875 0 -2.296875 1.0625q-0.46875 0.515625 -1.171875 1.703125q-0.703125 1.171875 -1.640625 2.984375q1.875 0.8125 4.1875 1.4375q2.328125 0.609375 5.1406403 0.90625zm26.57251 0.46875q-1.125 -2.703125 -2.421875 -5.015625q-1.28125 -2.3125 -2.75 -4.375q-1.453125 -2.046875 -3.078125 -3.921875q-1.609375 -1.875 -3.375 -3.515625l-2.15625 0q-1.125 -1.171875 -1.890625 -2.40625q-0.75 -1.234375 -0.75 -2.9375q0 -1.875 0.96875 -2.875q0.96875 -1.0 2.84375 -1.578125q1.8125 1.171875 3.484375 3.078125q1.671875 1.90625 3.140625 4.140625q1.515625 2.15625 2.78125 4.53125q1.265625 2.375 2.203125 4.5q0.53125 1.21875 1.109375 2.71875q0.59375 1.5 1.171875 3.109375q0.59375 1.609375 1.0625 3.203125l-2.34375 1.34375zm2.4016418 -36.240875l0.359375 -2.9375q3.984375 -1.53125 6.5 -2.5q2.53125 -0.96875 4.109375 -1.71875l0.0625 0.75q0 1.59375 -1.359375 2.46875q-1.453125 0.765625 -3.890625 1.765625q-2.4375 0.984375 -5.78125 2.171875zm-17.070404 42.053375l-0.296875 -2.640625q3.296875 -0.828125 5.734375 -1.640625q2.421875 -0.828125 4.359375 -1.765625q1.9375 -1.0 3.375 -2.25q1.4375 -1.265625 2.609375 -2.96875q1.234375 -1.875 2.171875 -4.125q0.9375 -2.265625 1.515625 -5.203125q0.65625 -2.9375 0.96875 -6.65625q0.328125 -3.71875 0.328125 -8.53125q1.703125 -1.0 3.046875 -1.9375q1.359375 -0.9375 3.171875 -2.0q0 1.0 0 3.109375q0 2.109375 0.03125 4.703125q0.03125 2.578125 0.046875 5.1875q0.03125 2.609375 0.0625 4.640625q0.03125 2.015625 0.03125 2.953125q0 0.9375 0.03125 2.4375q0.03125 1.484375 0.03125 3.109375q0 1.609375 0.03125 2.90625q0.03125 1.28125 0.03125 1.75q0.640625 0.40625 1.3125 0.703125q0.671875 0.296875 1.375 0.53125q0.828125 0.171875 1.734375 0.296875q0.90625 0.109375 2.03125 0.109375q0.515625 0 0.515625 0.46875l0 5.984375q0 0.46875 -0.515625 0.46875q-2.234375 0 -4.171875 -0.515625q-1.9375 -0.53125 -3.171875 -1.671875q-1.21875 -1.15625 -1.578125 -3.09375q-0.359375 -2.046875 -0.53125 -4.453125q-0.171875 -2.40625 -0.34375 -4.875q-0.0625 -1.171875 -0.1875 -2.625q-0.109375 -1.46875 -0.234375 -2.78125q-0.109375 -1.328125 -0.171875 -2.15625q-0.34375 3.171875 -0.5625 5.0q-0.203125 1.8125 -0.328125 2.875q-0.109375 1.046875 -0.25 1.8125q-0.140625 0.75 -0.4375 1.8125q-0.703125 2.34375 -1.5 4.140625q-0.796875 1.78125 -1.78125 3.078125q-2.0 2.515625 -5.046875 2.875q-3.578125 0.40625 -6.859375 0.609375q-3.296875 0.203125 -6.578125 0.328125zm54.261658 -27.152039q-1.34375 0 -2.234375 -1.0q-0.875 -1.0 -0.875 -2.46875q0 -1.765625 1.0 -2.9375q1.0 -1.171875 2.21875 -1.171875q1.296875 0 2.296875 1.171875q1.0 1.171875 1.0 2.9375q0 1.40625 -1.03125 2.4375q-1.03125 1.03125 -2.375 1.03125zm0.109375 -2.234375q0.59375 0 1.0625 -0.40625q0.46875 -0.421875 0.46875 -0.765625q0 -0.46875 -0.59375 -1.046875q-0.578125 -0.59375 -1.21875 -0.59375q-0.359375 0 -0.765625 0.296875q-0.40625 0.28125 -0.40625 0.9375q0 0.515625 0.28125 1.046875q0.296875 0.53125 1.171875 0.53125zm-7.627716 29.558289q-1.453125 0 -3.125 -0.46875q-1.671875 -0.46875 -3.609375 -1.40625q-1.171875 0.578125 -3.03125 0.96875q-1.84375 0.375 -3.71875 0.375q-0.46875 0 -0.46875 -0.46875l0 -5.984375q0 -0.46875 0.46875 -0.46875q2.703125 0 4.046875 -0.34375q1.34375 -0.359375 2.171875 -1.171875q0.40625 -0.421875 0.75 -0.90625q0.359375 -0.5 0.859375 -1.328125q0.5 -0.828125 1.328125 -2.234375q0.34375 -0.640625 1.015625 -1.046875q0.671875 -0.421875 1.4375 -0.421875q0.828125 0 1.828125 0.65625q-0.9375 2.453125 -1.640625 4.25q-0.703125 1.78125 -1.1875 2.84375q0.828125 0.0625 1.609375 0.125q0.796875 0.046875 1.5625 0.046875q1.171875 0 2.109375 -0.140625q0.9375 -0.140625 2.109375 -0.5q0.296875 -0.46875 0.703125 -1.40625q0.421875 -0.9375 1.03125 -2.515625q0.625 -1.59375 1.5 -4.0q0.296875 -0.765625 1.046875 -1.25q0.765625 -0.5 1.828125 -0.5q1.234375 0 2.046875 0.640625q-0.703125 1.75 -1.328125 3.6875q-0.609375 1.9375 -1.125 3.875q1.515625 0.765625 3.25 1.265625q1.734375 0.5 3.65625 0.828125q1.9375 0.3125 4.0625 0.546875q-0.890625 -1.765625 -1.71875 -3.3125q-0.8125 -1.5625 -1.40625 -2.8125q-0.578125 -1.265625 -0.9375 -2.265625q-0.34375 -1.0 -0.34375 -1.640625q0 -1.40625 1.578125 -3.125q1.59375 -1.734375 3.765625 -2.859375q0.984375 4.984375 1.515625 7.78125q0.53125 2.78125 0.734375 4.1875q0.203125 1.40625 0.203125 2.171875q0 0.9375 -0.375 2.53125q-0.375 1.578125 -0.96875 3.15625q-0.59375 1.578125 -1.109375 2.640625q-3.53125 0 -7.234375 -0.8125q-3.6875 -0.828125 -6.796875 -2.171875q-0.34375 0.75 -0.703125 1.40625q-0.28125 0.40625 -1.40625 0.796875q-1.109375 0.375 -2.703125 0.578125q-1.578125 0.203125 -3.28125 0.203125zm25.697662 19.008423l0.359375 -2.9375q3.984375 -1.53125 6.5 -2.5q2.53125 -0.96875 4.109375 -1.71875l0.0625 0.75q0 1.59375 -1.359375 2.46875q-1.453125 0.765625 -3.890625 1.75q-2.4375 1.0 -5.78125 2.1875zm2.0491943 -6.445923l-0.171875 -2.46875l2.109375 -1.234375q-1.875 -0.703125 -1.875 -2.28125q0 -1.0625 0.640625 -2.125q0.65625 -1.046875 1.609375 -1.78125q0.96875 -0.734375 1.859375 -0.734375q2.171875 0 2.171875 2.640625q0 0.875 -0.234375 1.34375l-1.171875 -0.171875l0 -0.171875q0 -0.296875 -0.1875 -0.421875q-0.171875 -0.109375 -0.515625 -0.109375q-0.59375 0 -1.125 0.34375q-0.53125 0.359375 -0.9375 1.125q1.0625 1.046875 2.9375 1.046875q0.46875 0 1.046875 -0.0625q0.59375 -0.046875 1.234375 -0.171875l-0.234375 2.59375q-2.109375 0.46875 -3.546875 0.953125q-1.4375 0.5 -3.609375 1.6875zm8.046875 -12.5625q-0.1875 0 -0.1875 -0.703125q0 -0.828125 0.140625 -2.203125q0.15625 -1.375 0.390625 -2.453125q0.234375 -1.09375 0.40625 -1.09375q1.640625 0 3.609375 -0.046875q1.96875 -0.0625 4.078125 -0.1875q2.109375 -0.109375 4.3125 -0.34375q2.203125 -0.234375 4.25 -0.59375q-2.109375 -2.578125 -3.953125 -4.625q-1.84375 -2.0625 -3.90625 -3.875q-1.984375 -1.828125 -4.3125 -3.546875q-2.3125 -1.734375 -5.421875 -3.609375l-2.171875 0.109375q-1.515625 -0.765625 -2.484375 -2.046875q-0.96875 -1.296875 -0.96875 -3.171875q0 -1.640625 0.875 -2.890625q0.875 -1.265625 2.34375 -2.09375q1.34375 0.875 2.84375 2.109375q1.5 1.234375 3.140625 2.765625q2.0 1.75 4.15625 3.890625q2.171875 2.140625 4.1875 4.28125q2.03125 2.140625 3.390625 3.90625q0.875 1.109375 1.921875 2.546875q1.0625 1.4375 2.03125 2.84375q0.96875 1.40625 1.578125 2.5q0.625 1.078125 0.625 1.546875q0 0.421875 -0.296875 1.359375q-0.296875 0.9375 -0.703125 2.0q-0.40625 1.046875 -0.796875 1.8125q-0.375 0.75 -0.546875 0.8125q-1.125 0.171875 -2.90625 0.359375q-1.78125 0.171875 -3.71875 0.296875q-1.9375 0.109375 -3.578125 0.171875q-0.53125 0 -1.6875 0.03125q-1.140625 0.015625 -2.453125 0.046875q-1.3125 0.03125 -2.46875 0.0625q-1.140625 0.03125 -1.71875 0.03125zm5.331238 -4.640625l-3.171875 -1.046875q2.578125 -2.0 4.640625 -3.953125q2.046875 -1.96875 3.515625 -3.96875q1.46875 -2.046875 2.25 -4.296875q0.796875 -2.265625 0.796875 -4.796875q0 -0.703125 -0.171875 -2.015625q-0.171875 -1.328125 -0.4375 -2.90625q-0.265625 -1.578125 -0.5625 -3.1875q-0.296875 -1.625 -0.46875 -2.90625q-0.171875 -1.296875 -0.171875 -1.9375q0 -2.40625 1.71875 -3.8125q1.734375 -1.421875 4.4375 -1.421875q0.59375 2.171875 1.078125 3.765625q0.5 1.578125 1.265625 3.453125l-1.9375 1.46875q0.0625 0.59375 0.09375 1.625q0.03125 1.015625 0.0625 2.078125q0.03125 1.046875 0.046875 1.875q0.03125 0.8125 0.03125 1.046875q0 3.765625 -1.328125 7.21875q-1.3125 3.453125 -3.59375 6.390625q-1.703125 2.171875 -3.703125 3.9375q-1.984375 1.75 -4.390625 3.390625zm25.570068 4.109375q-0.296875 -6.03125 -0.59375 -10.609375q-0.28125 -4.578125 -0.578125 -8.421875q-0.296875 -3.84375 -0.65625 -7.46875q-0.34375 -3.640625 -0.75 -7.875q-0.171875 -1.453125 0.671875 -2.5625q0.859375 -1.125 2.34375 -1.765625q1.5 -0.65625 3.265625 -0.65625q0.46875 1.828125 1.078125 3.640625q0.625 1.8125 1.328125 3.578125l-2.0625 1.53125q0.125 3.21875 0.125 7.703125q0 4.484375 -0.09375 10.125q-0.078125 5.625 -0.328125 12.3125l-3.75 0.46875zm39.949524 0q-3.515625 0 -5.65625 -1.171875q-2.140625 -1.171875 -3.171875 -3.125q-1.03125 -1.96875 -1.328125 -4.5q-0.109375 -1.109375 -0.40625 -3.71875q-0.296875 -2.609375 -0.625 -5.953125q-0.3125 -3.34375 -0.671875 -6.75q-0.34375 -3.40625 -0.640625 -6.15625q-0.28125 -2.765625 -0.46875 -4.109375q1.703125 -1.109375 3.4375 -2.078125q1.734375 -0.96875 3.546875 -1.796875q0.171875 4.40625 0.265625 8.78125q0.09375 4.359375 0.203125 8.765625q0.125 4.390625 0.359375 8.796875l0.234375 4.578125q1.046875 0.875 2.21875 1.203125q1.171875 0.3125 2.8125 0.3125q0.359375 0 0.359375 0.46875l0 5.984375q0 0.46875 -0.46875 0.46875zm5.103119 -26.675323l0.359375 -2.9375q3.984375 -1.53125 6.5 -2.5q2.53125 -0.96875 4.109375 -1.71875l0.0625 0.75q0 1.59375 -1.359375 2.46875q-1.453125 0.765625 -3.890625 1.765625q-2.4375 0.984375 -5.78125 2.171875zm9.500916 38.462463q-1.234375 -1.0 -2.234375 -1.875q-0.984375 -0.875 -1.8125 -1.765625q1.109375 -0.984375 2.078125 -2.015625q0.96875 -1.03125 1.859375 -2.078125q0.515625 0.578125 1.453125 1.453125q0.9375 0.890625 2.234375 2.171875q-1.578125 2.171875 -3.578125 4.109375zm-7.859375 0.890625q-1.296875 -1.0 -2.296875 -1.9375q-0.984375 -0.9375 -1.75 -1.765625q1.0 -1.0 1.984375 -2.03125q1.0 -1.015625 2.0 -2.015625q0.53125 0.59375 1.4375 1.53125q0.90625 0.9375 2.203125 2.109375q-0.765625 1.046875 -1.640625 2.078125q-0.875 1.03125 -1.9375 2.03125zm-7.273529 -12.677765q-0.46875 0 -0.46875 -0.46875l0 -5.984375q0 -0.46875 0.46875 -0.46875q2.8125 0 5.1875 -0.140625q2.375 -0.15625 3.90625 -0.90625q1.171875 -0.59375 1.78125 -1.609375q0.625 -1.03125 1.5625 -2.90625q0.9375 -1.9375 1.640625 -2.375q0.703125 -0.453125 1.640625 -0.453125q1.40625 0 2.34375 0.828125q-0.53125 1.296875 -1.0 2.375q-0.46875 1.078125 -0.84375 2.0q-0.375 0.90625 -0.734375 1.671875q1.40625 0.75 2.953125 1.140625q1.5625 0.375 3.203125 0.375q0.46875 0 0.46875 0.46875l0 5.984375q0 0.46875 -0.46875 0.46875q-4.453125 0 -8.5 -4.046875l-0.46875 0.765625q-1.109375 1.40625 -2.765625 2.109375q-1.640625 0.703125 -4.046875 0.9375q-2.40625 0.234375 -5.859375 0.234375zm38.657593 -34.419342q-1.34375 0 -2.234375 -1.0q-0.875 -1.0 -0.875 -2.46875q0 -1.765625 1.0 -2.9375q1.0 -1.171875 2.21875 -1.171875q1.296875 0 2.296875 1.171875q1.0 1.171875 1.0 2.9375q0 1.40625 -1.03125 2.4375q-1.03125 1.03125 -2.375 1.03125zm0.109375 -2.234375q0.59375 0 1.0625 -0.40625q0.46875 -0.421875 0.46875 -0.765625q0 -0.46875 -0.59375 -1.046875q-0.578125 -0.59375 -1.21875 -0.59375q-0.359375 0 -0.765625 0.296875q-0.40625 0.28125 -0.40625 0.9375q0 0.515625 0.28125 1.046875q0.296875 0.53125 1.171875 0.53125zm3.11557 47.340363q-2.984375 -2.46875 -4.515625 -4.234375q1.34375 -1.34375 2.421875 -2.484375q1.09375 -1.140625 1.984375 -2.203125q0.640625 0.703125 1.6875 1.75q1.0625 1.0625 2.53125 2.46875q-0.703125 1.0 -1.734375 2.171875q-1.03125 1.171875 -2.375 2.53125zm-20.766327 -10.6866455q-0.46875 0 -0.46875 -0.46875l0 -5.984375q0 -0.46875 0.46875 -0.46875q4.28125 0 7.265625 -0.140625q3.0 -0.15625 5.8125 -0.96875q2.53125 -0.765625 4.3125 -1.234375q1.796875 -0.46875 2.78125 -0.703125q-0.8125 -0.46875 -1.609375 -0.96875q-0.796875 -0.5 -1.546875 -1.03125q-1.875 -1.28125 -3.140625 -1.78125q-1.265625 -0.5 -2.546875 -0.5q-1.765625 0 -3.359375 0.5q-1.578125 0.5 -3.5625 1.78125q-0.53125 -0.515625 -0.953125 -1.546875q-0.40625 -1.03125 -0.40625 -1.96875q0 -2.578125 2.28125 -4.1875q2.296875 -1.609375 5.765625 -1.609375q1.875 0 3.59375 0.640625q1.734375 0.640625 3.90625 2.109375q2.640625 1.8125 4.859375 2.90625q2.234375 1.078125 5.28125 1.90625q1.53125 0.34375 3.34375 0.5625q1.828125 0.203125 4.0 0.203125l-3.046875 6.21875q-1.828125 -0.1875 -3.03125 -0.296875q-1.203125 -0.125 -2.84375 0q-1.34375 0.109375 -2.875 0.578125q-1.515625 0.46875 -3.046875 1.171875q-1.53125 0.703125 -3.0 1.53125q-2.28125 1.34375 -4.1875 2.109375q-1.90625 0.765625 -3.90625 1.125q-1.984375 0.34375 -4.421875 0.4375q-2.4375 0.078125 -5.71875 0.078125zm49.5054 11.96875q-0.703125 0 -2.171875 -0.671875q-1.46875 -0.671875 -3.140625 -1.765625q-1.671875 -1.078125 -3.140625 -2.3125l0.953125 -2.46875q1.578125 0.421875 3.1875 0.625q1.609375 0.203125 3.25 0.203125q3.703125 0 6.6875 -1.5625q3.0 -1.546875 4.640625 -4.078125q-2.515625 -0.171875 -4.34375 -0.34375q-1.8125 -0.171875 -2.9375 -0.40625q-3.390625 -0.765625 -5.0625 -2.703125q-1.671875 -1.9375 -1.671875 -5.28125q0 -3.21875 1.21875 -6.359375q1.234375 -3.140625 3.234375 -5.078125q2.046875 -1.9375 4.046875 -1.9375q2.40625 0 4.546875 2.171875q2.140625 2.171875 3.546875 5.625q0.640625 1.65625 1.078125 3.53125q0.453125 1.875 0.625 3.921875l3.171875 0q0.46875 0 0.46875 0.46875l0 5.984375q0 0.46875 -0.46875 0.46875l-3.640625 0q-1.0625 3.875 -3.34375 6.65625q-2.28125 2.796875 -5.28125 4.140625q-2.640625 1.171875 -5.453125 1.171875zm10.734375 -18.953125q-0.828125 -2.625 -1.9375 -4.46875q-1.109375 -1.859375 -2.46875 -2.796875q-1.34375 -0.9375 -2.859375 -0.9375q-1.125 0 -2.0625 0.59375q-0.9375 0.578125 -1.515625 1.40625q-0.53125 0.875 -0.53125 1.875q0 1.640625 1.4375 2.609375q1.4375 0.96875 4.3125 1.375q0.640625 0.0625 2.046875 0.15625q1.40625 0.078125 3.578125 0.1875zm7.1578674 -35.1203q-1.9375 0 -1.9375 -1.59375q1.875 -0.40625 3.15625 -0.984375q1.296875 -0.59375 2.234375 -1.234375q-2.109375 -1.125 -2.109375 -2.765625q0 -1.34375 1.171875 -2.546875q1.171875 -1.203125 2.53125 -1.203125q1.0 0 1.640625 0.9375q0.703125 0.9375 0.703125 2.9375q0 0.75 -0.296875 1.40625l1.8125 0.109375q0 0.9375 -0.640625 1.390625q-0.640625 0.4375 -1.984375 0.4375l-0.53125 -0.0625q-1.46875 1.46875 -3.03125 2.328125q-1.546875 0.84375 -2.71875 0.84375zm5.15625 -5.515625l0.125 -0.234375q0.109375 -0.234375 0.109375 -0.40625q0 -0.1875 0 -0.296875q0 -0.828125 -0.328125 -1.296875q-0.3125 -0.46875 -0.71875 -0.46875q-0.359375 0 -0.6875 0.234375q-0.3125 0.234375 -0.3125 0.53125q0 1.171875 1.8125 1.9375zm-5.8617554 47.6203q-0.46875 0 -0.46875 -0.46875l0 -5.984375q0 -0.46875 0.46875 -0.46875q2.578125 0 6.15625 -1.34375q-0.234375 -1.703125 -0.4375 -3.421875q-0.203125 -1.734375 -0.5 -3.4375q-0.234375 -1.703125 -1.171875 -6.78125q-0.9375 -5.078125 -2.46875 -13.578125q1.53125 -1.0625 3.3125 -2.0q1.796875 -0.9375 3.671875 -1.875q0.125 4.8125 0.234375 9.125q0.125 4.3125 0.234375 8.0625q0.125 3.75 0.171875 6.953125q0.0625 3.203125 0.0625 5.953125q0 2.0 -0.5625 3.875q-0.546875 1.875 -1.71875 3.578125q-0.59375 0.8125 -2.5 1.3125q-1.90625 0.5 -4.484375 0.5zm24.165894 11.96875q-0.703125 0 -2.171875 -0.671875q-1.46875 -0.671875 -3.140625 -1.765625q-1.671875 -1.078125 -3.140625 -2.3125l0.953125 -2.46875q1.578125 0.421875 3.1875 0.625q1.609375 0.203125 3.25 0.203125q3.703125 0 6.6875 -1.5625q3.0 -1.546875 4.640625 -4.078125q-2.515625 -0.171875 -4.34375 -0.34375q-1.8125 -0.171875 -2.9375 -0.40625q-3.390625 -0.765625 -5.0625 -2.703125q-1.671875 -1.9375 -1.671875 -5.28125q0 -3.21875 1.21875 -6.359375q1.234375 -3.140625 3.234375 -5.078125q2.046875 -1.9375 4.046875 -1.9375q2.40625 0 4.546875 2.171875q2.140625 2.171875 3.546875 5.625q0.640625 1.65625 1.078125 3.53125q0.453125 1.875 0.625 3.921875l3.171875 0q0.46875 0 0.46875 0.46875l0 5.984375q0 0.46875 -0.46875 0.46875l-3.640625 0q-1.0625 3.875 -3.34375 6.65625q-2.28125 2.796875 -5.28125 4.140625q-2.640625 1.171875 -5.453125 1.171875zm10.734375 -18.953125q-0.828125 -2.625 -1.9375 -4.46875q-1.109375 -1.859375 -2.46875 -2.796875q-1.34375 -0.9375 -2.859375 -0.9375q-1.125 0 -2.0625 0.59375q-0.9375 0.578125 -1.515625 1.40625q-0.53125 0.875 -0.53125 1.875q0 1.640625 1.4375 2.609375q1.4375 0.96875 4.3125 1.375q0.640625 0.0625 2.046875 0.15625q1.40625 0.078125 3.578125 0.1875zm10.912537 -24.560303q-1.9375 0 -1.9375 -1.59375q1.875 -0.40625 3.15625 -0.984375q1.296875 -0.59375 2.234375 -1.234375q-2.109375 -1.125 -2.109375 -2.765625q0 -1.34375 1.171875 -2.546875q1.171875 -1.203125 2.53125 -1.203125q1.0 0 1.640625 0.9375q0.703125 0.9375 0.703125 2.9375q0 0.75 -0.296875 1.40625l1.8125 0.109375q0 0.9375 -0.640625 1.390625q-0.640625 0.4375 -1.984375 0.4375l-0.53125 -0.0625q-1.46875 1.46875 -3.03125 2.328125q-1.546875 0.84375 -2.71875 0.84375zm5.15625 -5.515625l0.125 -0.234375q0.109375 -0.234375 0.109375 -0.40625q0 -0.1875 0 -0.296875q0 -0.828125 -0.328125 -1.296875q-0.3125 -0.46875 -0.71875 -0.46875q-0.359375 0 -0.6875 0.234375q-0.3125 0.234375 -0.3125 0.53125q0 1.171875 1.8125 1.9375zm-0.75946045 16.662292q-2.984375 -2.46875 -4.515625 -4.234375q1.34375 -1.34375 2.421875 -2.484375q1.09375 -1.140625 1.984375 -2.203125q0.640625 0.703125 1.6875 1.765625q1.0625 1.046875 2.53125 2.453125q-0.703125 1.0 -1.734375 2.171875q-1.03125 1.171875 -2.375 2.53125zm-8.856995 20.39801q-0.46875 0 -0.46875 -0.46875l0 -5.984375q0 -0.46875 0.46875 -0.46875q3.8125 0 5.75 -1.40625q0.765625 -0.53125 1.34375 -1.640625q0.59375 -1.109375 1.359375 -2.578125q0.9375 -1.875 1.640625 -2.3125q0.703125 -0.453125 1.640625 -0.453125q1.34375 0 2.34375 0.828125q-0.640625 1.46875 -1.328125 3.0q-0.671875 1.515625 -1.3125 3.046875q1.40625 0.75 2.953125 1.140625q1.5625 0.375 3.265625 0.375q0.46875 0 0.46875 0.46875l0 5.984375q0 0.46875 -0.46875 0.46875q-4.453125 0 -8.5 -4.046875q-0.359375 0.59375 -0.6875 1.0625q-0.3125 0.46875 -0.609375 0.875q-0.765625 0.875 -2.828125 1.5q-2.046875 0.609375 -5.03125 0.609375zm28.039673 -38.05667q-1.34375 0 -2.234375 -1.0q-0.875 -1.0 -0.875 -2.46875q0 -1.765625 1.0 -2.9375q1.0 -1.171875 2.21875 -1.171875q1.296875 0 2.296875 1.171875q1.0 1.171875 1.0 2.9375q0 1.40625 -1.03125 2.4375q-1.03125 1.03125 -2.375 1.03125zm0.109375 -2.234375q0.59375 0 1.0625 -0.40625q0.46875 -0.421875 0.46875 -0.765625q0 -0.46875 -0.59375 -1.046875q-0.578125 -0.59375 -1.21875 -0.59375q-0.359375 0 -0.765625 0.296875q-0.40625 0.28125 -0.40625 0.9375q0 0.515625 0.28125 1.046875q0.296875 0.53125 1.171875 0.53125zm-11.021423 40.291046q-0.46875 0 -0.46875 -0.46875l0 -5.984375q0 -0.46875 0.46875 -0.46875q7.625 0 11.84375 -0.53125q4.109375 -0.46875 6.046875 -1.453125q-0.640625 -1.359375 -2.0625 -2.90625q-1.40625 -1.5625 -3.328125 -3.078125q-1.125 -0.828125 -2.5625 -1.765625q-1.4375 -0.9375 -3.3125 -2.046875q-3.046875 -1.703125 -4.546875 -3.28125q-1.484375 -1.59375 -1.484375 -2.9375q0 -1.171875 0.515625 -2.3125q0.53125 -1.15625 1.359375 -1.921875q0.40625 -0.34375 2.25 -1.25q1.84375 -0.90625 4.515625 -2.109375q2.671875 -1.203125 5.625 -2.5q2.96875 -1.296875 5.6875 -2.4375q2.734375 -1.140625 4.609375 -1.90625q1.234375 1.125 1.234375 2.9375q0 1.46875 -0.90625 2.796875q-0.90625 1.3125 -2.25 1.953125q-2.234375 1.109375 -4.5625 2.109375q-2.3125 1.0 -5.484375 2.140625q-3.15625 1.140625 -8.03125 2.84375q4.109375 1.0 7.6875 3.375q3.578125 2.375 5.75 5.484375q2.28125 3.234375 2.28125 6.109375q0 0.515625 -0.046875 0.640625q3.28125 2.046875 7.09375 2.046875q0.53125 0 0.53125 0.46875l0 5.984375q0 0.46875 -0.53125 0.46875q-2.640625 0 -5.015625 -1.078125q-2.375 -1.09375 -4.421875 -3.265625q-0.53125 0.46875 -1.265625 0.953125q-0.734375 0.46875 -1.609375 0.9375q-5.28125 2.453125 -15.609375 2.453125zm36.72876 -36.879303q-1.296875 0 -2.0 -0.703125q-0.703125 -0.71875 -0.703125 -1.9375q0 -1.234375 0.828125 -2.640625l1.21875 0.28125q-0.171875 0.53125 -0.171875 1.46875q0 1.359375 0.9375 1.359375q0.46881104 0 0.81256104 -0.4375q0.359375 -0.453125 0.3125 -1.09375l-0.125 -1.8125l1.765625 -1.125q0.234375 1.875 0.640625 2.59375q0.40625 0.703125 1.296875 0.703125q0.234375 0 0.4375 -0.140625q0.203125 -0.15625 0.3125 -0.390625q-0.109375 -0.65625 -0.8125 -2.109375l-0.125 -0.46875q0 -0.59375 0.5 -1.09375q0.5 -0.5 1.4375 -0.671875q0.59375 1.0625 0.796875 2.125q0.203125 1.046875 0.203125 1.515625q0 1.40625 -0.90625 2.40625q-0.90625 0.984375 -2.203125 0.984375q-1.0625 0 -1.765625 -0.515625q-0.8125 1.703125 -2.687561 1.703125zm-2.765625 6.390625l0.359375 -2.9375q3.984436 -1.53125 6.500061 -2.5q2.53125 -0.96875 4.109375 -1.71875l0.0625 0.75q0 1.59375 -1.359375 2.46875q-1.453125 0.765625 -3.890625 1.765625q-2.4375 0.984375 -5.781311 2.171875zm8.679626 10.373383q-1.234375 -1.0 -2.234375 -1.875q-0.984375 -0.875 -1.8125 -1.765625q1.109375 -0.984375 2.078125 -2.015625q0.96875 -1.03125 1.859375 -2.078125q0.515625 0.578125 1.453125 1.46875q0.9375 0.875 2.234375 2.15625q-1.578125 2.171875 -3.578125 4.109375zm-7.859436 0.890625q-1.296875 -1.0 -2.296875 -1.9375q-0.984375 -0.9375 -1.75 -1.765625q1.0 -1.0 1.984375 -2.015625q1.0 -1.03125 2.0 -2.03125q0.53125 0.59375 1.4375 1.53125q0.90625 0.9375 2.203186 2.109375q-0.765625 1.046875 -1.640686 2.078125q-0.875 1.03125 -1.9375 2.03125zm-7.390869 19.22467q-0.46875 0 -0.46875 -0.46875l0 -5.984375q0 -0.46875 0.46875 -0.46875q2.8125 0 5.1875 -0.140625q2.375 -0.15625 3.90625 -0.90625q1.171936 -0.59375 1.781311 -1.609375q0.625 -1.03125 1.5625 -2.90625q0.9375 -1.9375 1.640625 -2.375q0.703125 -0.453125 1.640625 -0.453125q1.40625 0 2.34375 0.828125q-0.53125 1.296875 -1.0 2.375q-0.46875 1.078125 -0.84375 2.0q-0.375 0.90625 -0.734375 1.671875q1.40625 0.75 2.953125 1.140625q1.5625 0.375 3.203125 0.375q0.46875 0 0.46875 0.46875l0 5.984375q0 0.46875 -0.46875 0.46875q-4.453125 0 -8.5 -4.046875l-0.46875 0.765625q-1.109375 1.40625 -2.765625 2.109375q-1.640686 0.703125 -4.046936 0.9375q-2.40625 0.234375 -5.859375 0.234375zm21.116272 0q-0.46875 0 -0.46875 -0.46875l0 -5.984375q0 -0.46875 0.46875 -0.46875q2.578125 0 6.15625 -1.34375q-0.234375 -1.703125 -0.4375 -3.421875q-0.203125 -1.734375 -0.5 -3.4375q-0.234375 -1.703125 -1.171875 -6.78125q-0.9375 -5.078125 -2.46875 -13.578125q1.53125 -1.0625 3.3125 -2.0q1.796875 -0.9375 3.671875 -1.875q0.125 4.8125 0.234375 9.125q0.125 4.3125 0.234375 8.0625q0.125 3.75 0.171875 6.953125q0.0625 3.203125 0.0625 5.953125q0 2.0 -0.5625 3.875q-0.546875 1.875 -1.71875 3.578125q-0.59375 0.8125 -2.5 1.3125q-1.90625 0.5 -4.484375 0.5zm19.822144 0q-0.296875 -6.03125 -0.59375 -10.609375q-0.28125 -4.578125 -0.578125 -8.421875q-0.296875 -3.84375 -0.65625 -7.46875q-0.34375 -3.640625 -0.75 -7.875q-0.171875 -1.453125 0.671875 -2.5625q0.859375 -1.125 2.34375 -1.765625q1.5 -0.65625 3.265625 -0.65625q0.46875 1.828125 1.078125 3.640625q0.625 1.8125 1.328125 3.578125l-2.0625 1.53125q0.125 3.21875 0.125 7.703125q0 4.484375 -0.09375 10.125q-0.078125 5.625 -0.328125 12.3125l-3.75 0.46875z" fill-rule="nonzero"/><path fill="#000000" fill-opacity="0.0" d="m136.7418 496.61035l576.0 0l0 51.716553l-576.0 0z" fill-rule="evenodd"/><path fill="#112113" d="m324.46255 537.30865l0.15625 -1.328125q1.8125 -0.703125 2.953125 -1.140625q1.15625 -0.4375 1.875 -0.78125l0.03125 0.34375q0 0.71875 -0.625 1.125q-0.65625 0.34375 -1.765625 0.796875q-1.109375 0.453125 -2.625 0.984375zm4.0462646 -19.616455q-0.5625 -0.453125 -1.015625 -0.84375q-0.453125 -0.40625 -0.8125 -0.796875q0.5 -0.453125 0.9375 -0.921875q0.4375 -0.46875 0.84375 -0.953125q0.234375 0.265625 0.65625 0.671875q0.4375 0.390625 1.015625 0.984375q-0.71875 0.984375 -1.625 1.859375zm-3.5625 0.40625q-0.59375 -0.453125 -1.046875 -0.875q-0.453125 -0.4375 -0.796875 -0.8125q0.453125 -0.453125 0.90625 -0.90625q0.453125 -0.46875 0.90625 -0.921875q0.234375 0.265625 0.640625 0.6875q0.421875 0.421875 1.015625 0.96875q-0.34375 0.46875 -0.75 0.9375q-0.40625 0.46875 -0.875 0.921875zm1.8531189 13.111877q-1.515625 0 -2.5 -1.015625q-0.984375 -1.03125 -0.984375 -2.578125q0 -1.09375 0.5625 -2.234375q0.578125 -1.15625 1.859375 -2.4375q-0.421875 -0.265625 -0.578125 -0.640625q-0.140625 -0.390625 -0.140625 -0.796875q0 -0.5625 0.21875 -1.0625q0.234375 -0.515625 0.609375 -0.703125q1.515625 0.484375 2.828125 1.5625q1.3125 1.0625 2.046875 2.421875q0.75 1.375 0.75 2.546875q0 0.375 -0.1875 1.0q-0.1875 0.625 -0.484375 1.296875q-0.28125 0.671875 -0.609375 1.1875q-0.3125 0.515625 -0.609375 0.703125q-0.5 0.34375 -1.234375 0.546875q-0.734375 0.203125 -1.546875 0.203125zm0.296875 -2.796875q0.75 0 1.40625 -0.203125q0.65625 -0.203125 1.234375 -0.546875q-0.390625 -1.171875 -1.09375 -2.109375q-0.6875 -0.953125 -1.78125 -1.78125q-0.78125 0.75 -1.171875 1.5q-0.375 0.734375 -0.375 1.453125q0 0.75 0.515625 1.21875q0.515625 0.46875 1.265625 0.46875zm10.375092 -16.074951l0.15625 -1.3281555q1.8125 -0.703125 2.953125 -1.140625q1.15625 -0.4375 1.875 -0.78125l0.03125 0.34375q0 0.71875 -0.625 1.125q-0.65625 0.34375 -1.765625 0.796875q-1.109375 0.453125 -2.625 0.9844055zm1.3254089 2.8266602q-0.578125 0 -0.90625 -0.3125q-0.3125 -0.328125 -0.3125 -0.890625q0 -0.5625 0.375 -1.203125l0.5625 0.140625q-0.078125 0.234375 -0.078125 0.671875q0 0.609375 0.421875 0.609375q0.21875 0 0.375 -0.203125q0.15625 -0.203125 0.125 -0.5l-0.046875 -0.8125l0.796875 -0.515625q0.109375 0.859375 0.296875 1.1875q0.1875 0.3125 0.578125 0.3125q0.109375 0 0.203125 -0.0625q0.09375 -0.078125 0.15625 -0.1875q-0.0625 -0.28125 -0.375 -0.953125l-0.0625 -0.21875q0 -0.26565552 0.21875 -0.48440552q0.234375 -0.234375 0.671875 -0.3125q0.265625 0.484375 0.359375 0.9687805q0.09375 0.46875 0.09375 0.6875q0 0.640625 -0.421875 1.09375q-0.40625 0.453125 -1.0 0.453125q-0.484375 0 -0.796875 -0.234375q-0.375 0.765625 -1.234375 0.765625zm-0.76226807 21.248291q-0.328125 0 -1.0 -0.3125q-0.65625 -0.3125 -1.421875 -0.8125q-0.75 -0.484375 -1.421875 -1.046875l0.421875 -1.109375q0.71875 0.1875 1.453125 0.28125q0.734375 0.09375 1.484375 0.09375q1.671875 0 3.03125 -0.71875q1.359375 -0.703125 2.109375 -1.84375q-1.140625 -0.078125 -1.96875 -0.15625q-0.828125 -0.078125 -1.328125 -0.1875q-1.546875 -0.34375 -2.3125 -1.21875q-0.765625 -0.890625 -0.765625 -2.40625q0 -1.46875 0.5625 -2.890625q0.5625 -1.4375 1.46875 -2.3125q0.9375 -0.875 1.84375 -0.875q1.09375 0 2.0625 0.984375q0.96875 0.984375 1.609375 2.5625q0.296875 0.734375 0.5 1.59375q0.203125 0.859375 0.28125 1.78125l1.4375 0q0.21875 0 0.21875 0.21875l0 2.71875q0 0.21875 -0.21875 0.21875l-1.65625 0q-0.484375 1.75 -1.53125 3.015625q-1.03125 1.265625 -2.390625 1.890625q-1.1875 0.53125 -2.46875 0.53125zm4.875 -8.609375q-0.375 -1.203125 -0.890625 -2.046875q-0.5 -0.84375 -1.109375 -1.265625q-0.609375 -0.421875 -1.3125 -0.421875q-0.5 0 -0.9375 0.265625q-0.421875 0.265625 -0.6875 0.640625q-0.234375 0.390625 -0.234375 0.84375q0 0.75 0.640625 1.1875q0.65625 0.4375 1.96875 0.625q0.296875 0.03125 0.9375 0.078125q0.640625 0.03125 1.625 0.09375zm6.7650757 -14.345581q-0.875 0 -0.875 -0.71875q0.859375 -0.1875 1.4375 -0.453125q0.59375 -0.265625 1.015625 -0.5625305q-0.953125 -0.5 -0.953125 -1.25q0 -0.609375 0.53125 -1.15625q0.53125 -0.546875 1.140625 -0.546875q0.453125 0 0.75 0.421875q0.3125 0.421875 0.3125 1.328125q0 0.34375 -0.125 0.640625l0.828125 0.0625q0 0.421875 -0.296875 0.625q-0.296875 0.20315552 -0.90625 0.20315552l-0.25 -0.03125q-0.65625 0.671875 -1.375 1.0625q-0.703125 0.375 -1.234375 0.375zm2.34375 -2.5000305l0.0625 -0.109375q0.046875 -0.109375 0.046875 -0.1875q0 -0.078125 0 -0.140625q0 -0.375 -0.15625 -0.578125q-0.140625 -0.21875 -0.3125 -0.21875q-0.171875 0 -0.3125 0.109375q-0.140625 0.109375 -0.140625 0.234375q0 0.53125 0.8125 0.890625zm1.6808472 7.533783q-0.5625 -0.453125 -1.015625 -0.84375q-0.453125 -0.40625 -0.8125 -0.796875q0.5 -0.453125 0.9375 -0.921875q0.4375 -0.46875 0.84375 -0.953125q0.234375 0.265625 0.65625 0.671875q0.4375 0.390625 1.015625 0.984375q-0.71875 0.984375 -1.625 1.859375zm-3.5625 0.40625q-0.59375 -0.453125 -1.046875 -0.875q-0.453125 -0.4375 -0.796875 -0.8125q0.453125 -0.453125 0.90625 -0.90625q0.453125 -0.46875 0.90625 -0.921875q0.234375 0.265625 0.640625 0.6875q0.421875 0.421875 1.015625 0.96875q-0.34375 0.46875 -0.75 0.9375q-0.40625 0.46875 -0.875 0.921875zm-4.2658386 12.077454q-0.25 0 -0.25 -0.25l0 -2.65625q0 -0.25 0.25 -0.25q0.453125 0 0.90625 0q0.46875 -0.015625 0.953125 -0.015625q-0.390625 -0.640625 -0.390625 -1.234375q0 -0.34375 0.0625 -0.921875q0.0625 -0.59375 0.171875 -1.125q0.125 -0.53125 0.234375 -0.75q0.515625 -0.90625 1.234375 -1.640625q0.734375 -0.734375 1.59375 -1.15625q0.859375 -0.421875 1.65625 -0.421875q0.71875 0 1.453125 0.796875q0.734375 0.796875 1.1875 2.046875q0.453125 1.28125 0.453125 2.375q0 1.046875 -0.59375 2.03125q0.5625 0 1.125 0.015625q0.578125 0 1.140625 0q0.21875 0 0.21875 0.21875l0 2.71875q0 0.21875 -0.21875 0.21875q-3.375 0 -5.703125 -0.890625q-1.21875 0.515625 -2.53125 0.703125q-1.3125 0.1875 -2.953125 0.1875zm5.375 -3.078125q1.625 -0.453125 2.640625 -1.296875q-0.1875 -0.71875 -0.578125 -1.40625q-0.375 -0.703125 -0.75 -1.046875q-0.265625 -0.328125 -0.5625 -0.328125q-0.453125 0 -0.96875 0.28125q-0.515625 0.28125 -1.078125 0.828125q-0.5625 0.546875 -1.171875 1.375q0.46875 0.5625 1.140625 0.984375q0.671875 0.40625 1.328125 0.609375zm5.5760803 3.078125q-0.21875 0 -0.21875 -0.21875l0 -2.71875q0 -0.21875 0.21875 -0.21875q1.171875 0 2.796875 -0.609375q-0.109375 -0.765625 -0.203125 -1.546875q-0.09375 -0.796875 -0.21875 -1.578125q-0.109375 -0.765625 -0.546875 -3.0625q-0.421875 -2.3125 -1.109375 -6.171875q0.6875 -0.484375 1.5 -0.90625q0.8125 -0.4375 1.671875 -0.859375q0.046875 2.1875 0.09375 4.15625q0.0625 1.953125 0.125 3.65625q0.046875 1.703125 0.078125 3.15625q0.03125 1.453125 0.03125 2.703125q0 0.90625 -0.265625 1.765625q-0.25 0.84375 -0.78125 1.625q-0.265625 0.375 -1.140625 0.609375q-0.859375 0.21875 -2.03125 0.21875zm13.706238 0q-1.609375 0 -2.578125 -0.53125q-0.96875 -0.546875 -1.4375 -1.4375q-0.46875 -0.890625 -0.59375 -2.03125q-0.0625 -0.515625 -0.203125 -1.703125q-0.125 -1.1875 -0.28125 -2.703125q-0.140625 -1.515625 -0.296875 -3.0625q-0.15625 -1.546875 -0.296875 -2.796875q-0.125 -1.25 -0.203125 -1.859375q0.765625 -0.515625 1.546875 -0.953125q0.796875 -0.4375 1.625 -0.8125q0.078125 2.0 0.109375 3.984375q0.046875 1.984375 0.09375 3.984375q0.0625 2.0 0.171875 4.0l0.09375 2.078125q0.484375 0.40625 1.015625 0.546875q0.53125 0.140625 1.28125 0.140625q0.15625 0 0.15625 0.21875l0 2.71875q0 0.21875 -0.203125 0.21875zm1.0084534 10.1727295l0.15625 -1.328125q1.8125 -0.703125 2.953125 -1.140625q1.15625 -0.4375 1.875 -0.78125l0.03125 0.34375q0 0.71875 -0.625 1.125q-0.65625 0.34375 -1.765625 0.796875q-1.109375 0.453125 -2.625 0.984375zm2.5268555 -3.9874878q-1.359375 -1.125 -2.046875 -1.921875q0.609375 -0.609375 1.09375 -1.140625q0.5 -0.515625 0.90625 -0.984375q0.296875 0.3125 0.765625 0.796875q0.484375 0.484375 1.15625 1.109375q-0.328125 0.453125 -0.796875 0.984375q-0.453125 0.546875 -1.078125 1.15625zm-3.7802124 -6.1852417q-0.21875 0 -0.21875 -0.21875l0 -2.71875q0 -0.21875 0.21875 -0.21875q1.328125 0 2.65625 -0.21875q1.34375 -0.234375 2.09375 -0.546875q-0.265625 -0.609375 -0.6875 -1.375q-0.40625 -0.765625 -0.65625 -1.1875q-0.265625 -0.5 -0.453125 -0.90625q-0.1875 -0.421875 -0.1875 -0.765625q0 -0.671875 0.71875 -1.4375q0.734375 -0.78125 1.71875 -1.28125q0.1875 0.8125 0.40625 1.875q0.234375 1.046875 0.421875 2.140625q0.15625 0.828125 0.21875 1.359375q0.0625 0.53125 0.0625 0.796875q0 0.625 -0.3125 1.515625q-0.296875 0.890625 -0.71875 1.71875q-2.421875 1.46875 -5.28125 1.46875zm17.248138 6.3327026l0.15625 -1.328125q1.8125 -0.703125 2.953125 -1.140625q1.15625 -0.4375 1.875 -0.78125l0.03125 0.34375q0 0.71875 -0.625 1.125q-0.65625 0.34375 -1.765625 0.796875q-1.109375 0.453125 -2.625 0.984375zm3.7795715 -19.669739q-0.5625 -0.453125 -1.015625 -0.84375q-0.453125 -0.40625 -0.8125 -0.796875q0.5 -0.453125 0.9375 -0.921875q0.4375 -0.46875 0.84375 -0.953125q0.234375 0.265625 0.65625 0.671875q0.4375 0.390625 1.015625 0.984375q-0.71875 0.984375 -1.625 1.859375zm-3.5625 0.40625q-0.59375 -0.453125 -1.046875 -0.875q-0.453125 -0.4375 -0.796875 -0.8125q0.453125 -0.453125 0.90625 -0.90625q0.453125 -0.46875 0.90625 -0.921875q0.234375 0.265625 0.640625 0.6875q0.421875 0.421875 1.015625 0.96875q-0.34375 0.46875 -0.75 0.9375q-0.40625 0.46875 -0.875 0.921875zm8.412506 12.930786q-1.625 0 -2.609375 -0.515625q-0.984375 -0.53125 -1.171875 -1.46875l-0.234375 -0.984375l-1.0625 2.1875q-0.5625 -0.046875 -1.0625 -0.109375q-0.484375 -0.078125 -0.9375 -0.171875q-0.4375 -0.09375 -0.859375 -0.21875q-0.671875 -0.25 -1.34375 -0.640625q-0.65625 -0.40625 -1.109375 -0.828125q-0.453125 -0.421875 -0.453125 -0.71875q0 -0.21875 0.171875 -0.78125q0.171875 -0.578125 0.40625 -1.21875q0.25 -0.640625 0.4375 -0.953125q0.234375 -0.546875 1.015625 -1.1875q0.734375 -0.65625 1.6875 -1.28125q0.96875 -0.625 1.640625 -0.921875l-0.140625 -1.0625q0.703125 -0.546875 1.140625 -0.859375q0.4375 -0.3125 0.8125 -0.5625q0.375 -0.265625 0.828125 -0.53125q0 2.234375 0 4.484375q0 2.234375 0 4.46875q1.28125 0.71875 2.84375 0.71875q0.21875 0 0.21875 0.21875l0 2.71875q0 0.21875 -0.21875 0.21875zm-4.28125 -3.953125q-0.171875 -0.640625 -0.359375 -1.5q-0.171875 -0.875 -0.421875 -1.96875q-2.46875 0.828125 -3.890625 2.171875q0.859375 0.578125 1.625 0.8125q0.78125 0.21875 1.46875 0.328125q0.375 0.046875 0.75 0.09375q0.390625 0.03125 0.828125 0.0625zm7.1934204 -14.791016l0.15625 -1.328125q1.8125 -0.703125 2.953125 -1.140625q1.15625 -0.4375 1.875 -0.78125l0.03125 0.34375q0 0.71875 -0.625 1.125q-0.65625 0.34375 -1.765625 0.796875q-1.109375 0.453125 -2.625 0.984375zm2.633545 5.119995q-1.359375 -1.125 -2.046875 -1.921875q0.609375 -0.609375 1.09375 -1.125q0.5 -0.53125 0.90625 -1.0q0.296875 0.3125 0.765625 0.796875q0.484375 0.484375 1.15625 1.109375q-0.328125 0.453125 -0.796875 1.0q-0.453125 0.53125 -1.078125 1.140625zm-5.7489624 13.6241455q-0.25 0 -0.25 -0.25l0 -2.6875q0 -0.21875 0.25 -0.21875q2.921875 0 4.953125 -0.1875q2.03125 -0.1875 3.59375 -0.90625q-0.046875 -0.1875 -0.125 -0.421875q-0.078125 -0.234375 -0.21875 -0.5625q-0.640625 0.5625 -1.421875 0.859375q-0.765625 0.296875 -1.6875 0.296875q-1.53125 0 -2.28125 -0.796875q-0.734375 -0.8125 -0.734375 -2.015625q0 -1.328125 0.484375 -2.4375q0.5 -1.125 1.328125 -1.765625q0.421875 -0.34375 0.890625 -0.546875q0.484375 -0.203125 1.0 -0.203125q1.09375 0 2.109375 1.21875q1.03125 1.203125 1.59375 3.078125q0.265625 0.796875 0.375 1.671875q0.125 0.859375 0.125 1.765625q0 0.265625 -0.03125 0.796875q-0.015625 0.53125 -0.1875 1.0625q-0.171875 0.515625 -0.6875 0.828125q-0.578125 0.328125 -1.890625 0.65625q-1.296875 0.328125 -3.125 0.546875q-1.828125 0.21875 -4.0625 0.21875zm5.453125 -6.03125q1.046875 0 2.25 -0.375q-0.515625 -1.171875 -1.109375 -1.703125q-0.578125 -0.53125 -1.40625 -0.53125q-0.828125 0 -1.296875 0.421875q-0.453125 0.40625 -0.453125 0.90625q0 0.640625 0.46875 0.96875q0.484375 0.3125 1.546875 0.3125zm6.0844727 16.310669l0.15625 -1.328125q1.8125 -0.703125 2.953125 -1.140625q1.15625 -0.4375 1.875 -0.78125l0.03125 0.34375q0 0.71875 -0.625 1.125q-0.65625 0.34375 -1.765625 0.796875q-1.109375 0.453125 -2.625 0.984375zm2.5321045 -4.841919q-0.296875 0 -0.859375 -0.265625q-0.546875 -0.265625 -1.28125 -0.765625q-0.71875 -0.5 -1.484375 -1.140625l0.421875 -1.109375q0.71875 0.1875 1.390625 0.28125q0.6875 0.09375 1.3125 0.09375q1.96875 0 3.328125 -1.0q1.359375 -0.984375 1.96875 -2.84375q-0.1875 -0.40625 -0.421875 -0.8125q-0.21875 -0.40625 -0.484375 -0.8125q-0.578125 -0.9375 -0.984375 -1.609375q-0.40625 -0.6875 -0.609375 -1.109375q-0.1875 -0.453125 -0.296875 -0.828125q-0.109375 -0.375 -0.109375 -0.6875q0 -0.78125 0.609375 -1.53125q0.625 -0.765625 1.609375 -1.265625q0.125 0.5 0.265625 1.015625q0.15625 0.5 0.34375 1.03125q0.59375 1.671875 0.921875 2.75q0.328125 1.0625 0.40625 1.515625q0.90625 0.5 2.0 0.5q0.21875 0 0.21875 0.21875l0 2.71875q0 0.21875 -0.21875 0.21875q-0.984375 0 -1.96875 -0.515625q-0.296875 1.765625 -1.15625 3.109375q-0.84375 1.34375 -2.109375 2.09375q-1.265625 0.75 -2.8125 0.75zm13.963318 -21.621643q-0.609375 0 -1.015625 -0.453125q-0.390625 -0.453125 -0.390625 -1.125q0 -0.796875 0.453125 -1.328125q0.453125 -0.53125 1.015625 -0.53125q0.578125 0 1.03125 0.53125q0.453125 0.53125 0.453125 1.328125q0 0.640625 -0.46875 1.109375q-0.453125 0.46875 -1.078125 0.46875zm0.0625 -1.015625q0.265625 0 0.46875 -0.1875q0.21875 -0.1875 0.21875 -0.34375q0 -0.21875 -0.265625 -0.484375q-0.265625 -0.265625 -0.5625 -0.265625q-0.15625 0 -0.34375 0.140625q-0.1875 0.125 -0.1875 0.421875q0 0.234375 0.125 0.484375q0.140625 0.234375 0.546875 0.234375zm-6.184143 17.199768q-0.25 0 -0.25 -0.25l0 -2.65625q0 -0.25 0.25 -0.25q1.40625 0 2.578125 -0.03125q1.171875 -0.046875 2.078125 -0.203125l-0.53125 -0.671875q-0.375 -0.5 -0.6875 -0.84375q-0.296875 -0.34375 -0.59375 -0.609375q-0.203125 -0.21875 -0.421875 -0.40625q-0.21875 -0.1875 -0.421875 -0.375l-0.484375 0.34375q-0.71875 -0.765625 -0.71875 -1.703125q0 -0.609375 0.359375 -1.09375q0.359375 -0.5 1.015625 -0.90625q0.671875 -0.421875 1.609375 -0.75q1.359375 -0.46875 2.640625 -0.46875q1.171875 0 2.203125 0.5q1.046875 0.5 1.640625 1.40625q0.609375 0.90625 0.609375 1.875q0 0.953125 -0.53125 1.890625q-0.53125 0.9375 -1.546875 1.859375q0.71875 0.109375 1.53125 0.15625q0.8125 0.03125 1.765625 0.03125q0.265625 0 0.265625 0.25l0 2.65625q0 0.25 -0.265625 0.25q-1.859375 0 -3.359375 -0.421875q-1.484375 -0.4375 -2.390625 -1.203125q-1.4375 0.8125 -3.03125 1.21875q-1.578125 0.40625 -3.3125 0.40625zm6.734375 -4.1875q0.703125 -0.453125 1.078125 -1.046875q0.390625 -0.609375 0.390625 -1.25q0 -0.671875 -0.484375 -1.046875q-0.46875 -0.390625 -1.1875 -0.390625q-0.703125 0 -1.328125 0.140625q-0.625 0.125 -1.46875 0.5q0.28125 0.265625 0.875 0.84375q0.609375 0.5625 1.4375 1.46875q0.15625 0.1875 0.328125 0.375q0.171875 0.1875 0.359375 0.40625zm8.642975 -9.596619l0.15625 -1.328125q1.8125 -0.703125 2.953125 -1.140625q1.15625 -0.4375 1.875 -0.78125l0.03125 0.34375q0 0.71875 -0.625 1.125q-0.65625 0.34375 -1.765625 0.796875q-1.109375 0.453125 -2.625 0.984375zm4.9239807 14.018494q-1.703125 0 -3.15625 -0.296875q-1.453125 -0.3125 -2.375 -0.828125q-0.75 0.515625 -1.421875 0.703125q-0.671875 0.1875 -1.4375 0.1875q-0.21875 0 -0.21875 -0.21875l0 -2.71875q0 -0.21875 0.21875 -0.21875q0.375 0 0.6875 -0.03125q0.328125 -0.046875 0.703125 -0.15625q0 -0.046875 0 -0.109375q0.015625 -0.078125 0.015625 -0.15625q0.140625 -0.921875 0.515625 -1.875q0.390625 -0.96875 0.984375 -1.796875q0.609375 -0.828125 1.328125 -1.359375q1.125 -0.875 2.296875 -0.875q0.265625 0 0.515625 0.171875q0.25 0.171875 0.5 0.515625q0.203125 0.34375 0.484375 0.96875q0.28125 0.625 0.609375 1.515625q0.3125 0.90625 0.640625 1.5625q0.34375 0.640625 0.6875 1.015625q0.5625 0.609375 1.203125 0.609375q0.296875 0 0.296875 0.25l0 2.609375q0 0.296875 -0.296875 0.296875q-1.328125 0 -2.40625 -1.015625l-0.375 1.25zm-0.8125 -2.953125q-0.4375 -0.890625 -0.71875 -1.875q-0.28125 -0.984375 -0.40625 -2.109375q-0.78125 0.296875 -1.4375 0.671875q-0.640625 0.375 -1.171875 0.8125q-0.53125 0.4375 -0.9375 0.953125q0.75 0.578125 1.90625 0.953125q1.15625 0.375 2.765625 0.59375zm3.4308472 2.71875q-0.21875 0 -0.21875 -0.21875l0 -2.71875q0 -0.21875 0.21875 -0.21875q1.171875 0 2.796875 -0.609375q-0.109375 -0.765625 -0.203125 -1.546875q-0.09375 -0.796875 -0.21875 -1.578125q-0.109375 -0.765625 -0.546875 -3.0625q-0.421875 -2.3125 -1.109375 -6.171875q0.6875 -0.484375 1.5 -0.90625q0.8125 -0.4375 1.671875 -0.859375q0.046875 2.1875 0.09375 4.15625q0.0625 1.953125 0.125 3.65625q0.046875 1.703125 0.078125 3.15625q0.03125 1.453125 0.03125 2.703125q0 0.90625 -0.265625 1.765625q-0.25 0.84375 -0.78125 1.625q-0.265625 0.375 -1.140625 0.609375q-0.859375 0.21875 -2.03125 0.21875zm9.003113 0q-0.125 -2.75 -0.265625 -4.828125q-0.125 -2.078125 -0.265625 -3.828125q-0.125 -1.75 -0.296875 -3.390625q-0.15625 -1.65625 -0.34375 -3.578125q-0.078125 -0.671875 0.3125 -1.171875q0.390625 -0.515625 1.0625 -0.796875q0.6875 -0.296875 1.484375 -0.296875q0.21875 0.828125 0.484375 1.65625q0.28125 0.828125 0.609375 1.625l-0.9375 0.6875q0.0625 1.46875 0.0625 3.515625q0 2.03125 -0.046875 4.59375q-0.046875 2.5625 -0.140625 5.59375l-1.71875 0.21875zm14.024292 -18.370789q-0.875 0 -0.875 -0.7187805q0.859375 -0.1875 1.4375 -0.453125q0.59375 -0.265625 1.015625 -0.5625q-0.953125 -0.5 -0.953125 -1.25q0 -0.609375 0.53125 -1.15625q0.53125 -0.546875 1.140625 -0.546875q0.453125 0 0.75 0.421875q0.3125 0.421875 0.3125 1.328125q0 0.34375 -0.125 0.640625l0.828125 0.0625q0 0.421875 -0.296875 0.625q-0.296875 0.203125 -0.90625 0.203125l-0.25 -0.03125q-0.65625 0.671875 -1.375 1.0625305q-0.703125 0.375 -1.234375 0.375zm2.34375 -2.5000305l0.0625 -0.109375q0.046875 -0.109375 0.046875 -0.1875q0 -0.078125 0 -0.140625q0 -0.375 -0.15625 -0.578125q-0.140625 -0.21875 -0.3125 -0.21875q-0.171875 0 -0.3125 0.109375q-0.140625 0.109375 -0.140625 0.234375q0 0.53125 0.8125 0.890625zm1.6808167 7.533783q-0.5625 -0.453125 -1.015625 -0.84375q-0.453125 -0.40625 -0.8125 -0.796875q0.5 -0.453125 0.9375 -0.921875q0.4375 -0.46875 0.84375 -0.953125q0.234375 0.265625 0.65625 0.671875q0.4375 0.390625 1.015625 0.984375q-0.71875 0.984375 -1.625 1.859375zm-3.5625 0.40625q-0.59375 -0.453125 -1.046875 -0.875q-0.453125 -0.4375 -0.796875 -0.8125q0.453125 -0.453125 0.90625 -0.90625q0.453125 -0.46875 0.90625 -0.921875q0.234375 0.265625 0.640625 0.6875q0.421875 0.421875 1.015625 0.96875q-0.34375 0.46875 -0.75 0.9375q-0.40625 0.46875 -0.875 0.921875zm8.412506 12.930786q-1.625 0 -2.609375 -0.515625q-0.984375 -0.53125 -1.171875 -1.46875l-0.234375 -0.984375l-1.0625 2.1875q-0.5625 -0.046875 -1.0625 -0.109375q-0.484375 -0.078125 -0.9375 -0.171875q-0.4375 -0.09375 -0.859375 -0.21875q-0.671875 -0.25 -1.34375 -0.640625q-0.65625 -0.40625 -1.109375 -0.828125q-0.453125 -0.421875 -0.453125 -0.71875q0 -0.21875 0.171875 -0.78125q0.171875 -0.578125 0.40625 -1.21875q0.25 -0.640625 0.4375 -0.953125q0.234375 -0.546875 1.015625 -1.1875q0.734375 -0.65625 1.6875 -1.28125q0.96875 -0.625 1.640625 -0.921875l-0.140625 -1.0625q0.703125 -0.546875 1.140625 -0.859375q0.4375 -0.3125 0.8125 -0.5625q0.375 -0.265625 0.828125 -0.53125q0 2.234375 0 4.484375q0 2.234375 0 4.46875q1.28125 0.71875 2.84375 0.71875q0.21875 0 0.21875 0.21875l0 2.71875q0 0.21875 -0.21875 0.21875zm-4.28125 -3.953125q-0.171875 -0.640625 -0.359375 -1.5q-0.171875 -0.875 -0.421875 -1.96875q-2.46875 0.828125 -3.890625 2.171875q0.859375 0.578125 1.625 0.8125q0.78125 0.21875 1.46875 0.328125q0.375 0.046875 0.75 0.09375q0.390625 0.03125 0.828125 0.0625zm9.406769 -11.697693l0.15625 -1.328125q1.8125 -0.703125 2.953125 -1.140625q1.15625 -0.4375 1.875 -0.78125l0.03125 0.34375q0 0.71875 -0.625 1.125q-0.65625 0.34375 -1.765625 0.796875q-1.109375 0.453125 -2.625 0.984375zm3.8068542 20.502686q-1.359375 -1.125 -2.046875 -1.921875q0.609375 -0.609375 1.09375 -1.140625q0.5 -0.515625 0.90625 -0.984375q0.296875 0.3125 0.765625 0.796875q0.484375 0.484375 1.15625 1.109375q-0.328125 0.453125 -0.796875 0.984375q-0.453125 0.546875 -1.078125 1.15625zm-9.16687 -4.8518677q-0.21875 0 -0.21875 -0.21875l0 -2.71875q0 -0.21875 0.21875 -0.21875q1.953125 0 3.3125 -0.0625q1.359375 -0.0625 2.625 -0.4375q1.15625 -0.34375 1.96875 -0.5625q0.8125 -0.21875 1.265625 -0.3125q-0.34375 -0.21875 -0.703125 -0.4375q-0.359375 -0.234375 -0.734375 -0.46875q-0.859375 -0.5625 -1.4375 -0.796875q-0.5625 -0.25 -1.15625 -0.25q-0.796875 0 -1.515625 0.234375q-0.71875 0.21875 -1.625 0.8125q-0.234375 -0.25 -0.421875 -0.703125q-0.1875 -0.46875 -0.1875 -0.90625q0 -1.171875 1.03125 -1.90625q1.046875 -0.734375 2.609375 -0.734375q0.859375 0 1.640625 0.296875q0.796875 0.296875 1.78125 0.96875q1.203125 0.8125 2.203125 1.3125q1.015625 0.5 2.40625 0.859375q0.6875 0.171875 1.515625 0.265625q0.828125 0.09375 1.8125 0.09375l-1.171875 2.234375q-0.21875 -0.03125 -0.4375 -0.03125q-0.203125 0 -0.421875 0q-0.203125 -0.015625 -0.421875 -0.015625q0.265625 0.234375 0.578125 0.328125q0.328125 0.09375 0.734375 0.140625q0.609375 0.03125 1.265625 0.046875q0.65625 0.015625 1.234375 0.03125q0.21875 0 0.21875 0.21875l0 2.71875q0 0.21875 -0.21875 0.21875q-0.953125 0 -2.0 -0.09375q-1.03125 -0.09375 -1.90625 -0.296875q-0.859375 -0.203125 -1.265625 -0.46875q-0.53125 -0.40625 -0.765625 -1.140625q-0.21875 -0.75 -0.375 -1.421875q-0.515625 0.109375 -0.921875 0.3125q-0.40625 0.203125 -0.921875 0.53125q-0.5 0.328125 -1.296875 0.859375q-0.96875 0.640625 -1.875 1.0q-0.90625 0.34375 -1.875 0.5q-0.953125 0.15625 -2.078125 0.1875q-1.109375 0.03125 -2.46875 0.03125zm17.193115 -19.19748l0.15625 -1.328125q1.8125 -0.703125 2.953125 -1.140625q1.15625 -0.4375 1.875 -0.78125l0.03125 0.34375q0 0.71875 -0.625 1.125q-0.65625 0.34375 -1.765625 0.796875q-1.109375 0.453125 -2.625 0.984375zm0.32000732 19.19748q-0.21875 0 -0.21875 -0.21875l0 -2.71875q0 -0.21875 0.21875 -0.21875q1.171875 0 2.796875 -0.609375q-0.109375 -0.765625 -0.203125 -1.546875q-0.09375 -0.796875 -0.21875 -1.578125q-0.109375 -0.765625 -0.546875 -3.0625q-0.421875 -2.3125 -1.109375 -6.171875q0.6875 -0.484375 1.5 -0.90625q0.8125 -0.4375 1.671875 -0.859375q0.046875 2.1875 0.09375 4.15625q0.0625 1.953125 0.125 3.65625q0.046875 1.703125 0.078125 3.15625q0.03125 1.453125 0.03125 2.703125q0 0.90625 -0.265625 1.765625q-0.25 0.84375 -0.78125 1.625q-0.265625 0.375 -1.140625 0.609375q-0.859375 0.21875 -2.03125 0.21875zm13.706238 0q-1.609375 0 -2.578125 -0.53125q-0.96875 -0.546875 -1.4375 -1.4375q-0.46875 -0.890625 -0.59375 -2.03125q-0.0625 -0.515625 -0.203125 -1.703125q-0.125 -1.1875 -0.28125 -2.703125q-0.140625 -1.515625 -0.296875 -3.0625q-0.15625 -1.546875 -0.296875 -2.796875q-0.125 -1.25 -0.203125 -1.859375q0.765625 -0.515625 1.546875 -0.953125q0.796875 -0.4375 1.625 -0.8125q0.078125 2.0 0.109375 3.984375q0.046875 1.984375 0.09375 3.984375q0.0625 2.0 0.171875 4.0l0.09375 2.078125q0.484375 0.40625 1.015625 0.546875q0.53125 0.140625 1.28125 0.140625q0.15625 0 0.15625 0.21875l0 2.71875q0 0.21875 -0.203125 0.21875zm3.3017578 -16.184143l0.15625 -1.328125q1.8125 -0.703125 2.953125 -1.140625q1.15625 -0.4375 1.875 -0.78125l0.03125 0.34375q0 0.71875 -0.625 1.125q-0.65625 0.34375 -1.765625 0.796875q-1.109375 0.453125 -2.625 0.984375zm-3.5154114 16.184143q-0.25 0 -0.25 -0.25l0 -2.65625q0 -0.25 0.25 -0.25q1.40625 0 2.578125 -0.03125q1.171875 -0.046875 2.078125 -0.203125l-0.53125 -0.671875q-0.375 -0.5 -0.6875 -0.84375q-0.296875 -0.34375 -0.59375 -0.609375q-0.203125 -0.21875 -0.421875 -0.40625q-0.21875 -0.1875 -0.421875 -0.375l-0.484375 0.34375q-0.71875 -0.765625 -0.71875 -1.703125q0 -0.609375 0.359375 -1.09375q0.359375 -0.5 1.015625 -0.90625q0.671875 -0.421875 1.609375 -0.75q1.359375 -0.46875 2.640625 -0.46875q1.171875 0 2.2030945 0.5q1.046875 0.5 1.640625 1.40625q0.609375 0.90625 0.609375 1.875q0 0.953125 -0.53125 1.890625q-0.53125 0.9375 -1.546875 1.859375q0.71875 0.109375 1.53125 0.15625q0.8125 0.03125 1.765625 0.03125q0.265625 0 0.265625 0.25l0 2.65625q0 0.25 -0.265625 0.25q-1.859375 0 -3.359375 -0.421875q-1.4843445 -0.4375 -2.3905945 -1.203125q-1.4375 0.8125 -3.03125 1.21875q-1.578125 0.40625 -3.3125 0.40625zm6.734375 -4.1875q0.703125 -0.453125 1.078125 -1.046875q0.390625 -0.609375 0.390625 -1.25q0 -0.671875 -0.484375 -1.046875q-0.46875 -0.390625 -1.1875 -0.390625q-0.703125 0 -1.328125 0.140625q-0.625 0.125 -1.46875 0.5q0.28125 0.265625 0.875 0.84375q0.609375 0.5625 1.4375 1.46875q0.15625 0.1875 0.328125 0.375q0.171875 0.1875 0.359375 0.40625zm10.344635 -9.543335q-0.875 0 -0.875 -0.71875q0.859375 -0.1875 1.4375 -0.453125q0.59375 -0.265625 1.015625 -0.5625q-0.953125 -0.5 -0.953125 -1.25q0 -0.609375 0.53125 -1.15625q0.53125 -0.546875 1.140625 -0.546875q0.453125 0 0.75 0.421875q0.3125 0.421875 0.3125 1.328125q0 0.34375 -0.125 0.640625l0.828125 0.0625q0 0.421875 -0.296875 0.625q-0.296875 0.203125 -0.90625 0.203125l-0.25 -0.03125q-0.65625 0.671875 -1.375 1.0625q-0.703125 0.375 -1.234375 0.375zm2.34375 -2.5l0.0625 -0.109375q0.046875 -0.109375 0.046875 -0.1875q0 -0.078125 0 -0.140625q0 -0.375 -0.15625 -0.578125q-0.140625 -0.21875 -0.3125 -0.21875q-0.171875 0 -0.3125 0.109375q-0.140625 0.109375 -0.140625 0.234375q0 0.53125 0.8125 0.890625zm2.269165 16.46521q-1.171875 0 -2.390625 -0.1875q-1.203125 -0.1875 -2.296875 -0.53125q-1.09375 -0.34375 -1.953125 -0.78125q-0.640625 0.671875 -1.359375 0.96875q-0.71875 0.296875 -1.78125 0.296875q-0.21875 0 -0.21875 -0.21875l0 -2.71875q0 -0.21875 0.21875 -0.21875q1.09375 0 1.90625 -0.484375q0.8125 -0.5 1.3125 -1.484375q0.328125 -0.640625 0.609375 -1.15625q0.28125 -0.515625 0.515625 -0.90625q0.234375 -0.390625 0.421875 -0.65625q0.671875 -0.90625 1.25 -1.28125q0.59375 -0.390625 1.375 -0.390625q0.953125 0 1.875 1.0q0.921875 1.0 1.5 2.640625q0.59375 1.609375 0.59375 3.09375q0 0.703125 -0.484375 1.609375q-0.484375 0.90625 -1.09375 1.40625zm-0.875 -2.9375q-0.109375 -0.984375 -0.4375 -1.8125q-0.3125 -0.84375 -0.71875 -1.359375q-0.421875 -0.5 -0.765625 -0.5q-0.59375 0 -1.046875 0.484375q-0.203125 0.234375 -0.53125 0.765625q-0.3125 0.53125 -0.734375 1.359375q0.84375 0.375 1.890625 0.65625q1.0625 0.28125 2.34375 0.40625z" fill-rule="nonzero"/><path fill="#000000" fill-opacity="0.0" d="m136.53949 499.63626l576.9134 0" fill-rule="evenodd"/><path stroke="#112113" stroke-width="8.0" stroke-linejoin="round" stroke-linecap="butt" d="m136.53949 499.63626l576.9134 0" fill-rule="evenodd"/><path fill="#000000" fill-opacity="0.0" d="m137.3175 546.0802l576.9134 0" fill-rule="evenodd"/><path stroke="#112113" stroke-width="8.0" stroke-linejoin="round" stroke-linecap="butt" d="m137.3175 546.0802l576.9134 0" fill-rule="evenodd"/><path fill="#112113" d="m607.5233 280.37158l0 0c0 -31.258453 25.332886 -56.598434 56.58264 -56.598434l0 0c15.006653 0 29.398682 5.963028 40.01001 16.577301c10.611328 10.614258 16.572693 25.0103 16.572693 40.021133l0 0c0 31.258423 -25.332947 56.59842 -56.582703 56.59842l0 0c-31.249756 0 -56.58264 -25.339996 -56.58264 -56.59842z" fill-rule="evenodd"/><path stroke="#112113" stroke-width="1.0" stroke-linejoin="round" stroke-linecap="butt" d="m607.5233 280.37158l0 0c0 -31.258453 25.332886 -56.598434 56.58264 -56.598434l0 0c15.006653 0 29.398682 5.963028 40.01001 16.577301c10.611328 10.614258 16.572693 25.0103 16.572693 40.021133l0 0c0 31.258423 -25.332947 56.59842 -56.582703 56.59842l0 0c-31.249756 0 -56.58264 -25.339996 -56.58264 -56.59842z" fill-rule="evenodd"/><path fill="#2c5532" d="m675.62024 294.56775c-1.9835815 4.32901 -24.183655 0.5666809 -26.640076 -4.5147705c-2.456482 -5.0814514 7.461426 -26.72644 11.901428 -25.973969c4.4400024 0.7524719 16.722229 26.15976 14.738647 30.488739z" fill-rule="evenodd"/><path stroke="#2c5532" stroke-width="1.0" stroke-linejoin="round" stroke-linecap="butt" d="m675.62024 294.56775c-1.9835815 4.32901 -24.183655 0.5666809 -26.640076 -4.5147705c-2.456482 -5.0814514 7.461426 -26.72644 11.901428 -25.973969c4.4400024 0.7524719 16.722229 26.15976 14.738647 30.488739z" fill-rule="evenodd"/><path fill="#112113" d="m705.03375 272.17838l117.7323 16.661407l-4.3149414 30.519684l-117.7323 -16.661407z" fill-rule="evenodd"/><path stroke="#112113" stroke-width="1.0" stroke-linejoin="round" stroke-linecap="butt" d="m705.03375 272.17838l117.7323 16.661407l-4.3149414 30.519684l-117.7323 -16.661407z" fill-rule="evenodd"/></g></svg>