<svg version="1.1" viewBox="0.0 0.0 960.0 720.0" fill="none" stroke="none" stroke-linecap="square" stroke-miterlimit="10" xmlns:xlink="http://www.w3.org/1999/xlink" xmlns="http://www.w3.org/2000/svg"><clipPath id="p.0"><path d="m0 0l960.0 0l0 720.0l-960.0 0l0 -720.0z" clip-rule="nonzero"/></clipPath><g clip-path="url(#p.0)"><path fill="#ffffff" d="m0 0l960.0 0l0 720.0l-960.0 0z" fill-rule="evenodd"/><path fill="#000000" fill-opacity="0.0" d="m140.55365 281.87418l661.19684 0l0 258.55118l-661.19684 0z" fill-rule="evenodd"/><path fill="#2c5532" d="m250.63367 482.28293q-14.40625 0 -26.4375 -5.125q-12.03125 -5.125 -20.921875 -14.6875q-8.875 -9.578125 -13.71875 -22.59375q-4.828125 -13.03125 -4.828125 -28.625q0 -14.796875 5.234375 -27.515625q5.234375 -12.734375 14.5 -22.40625q9.28125 -9.671875 21.515625 -15.0q12.234375 -5.328125 26.4375 -5.328125q10.0625 0 19.625 3.0625q9.578125 3.046875 17.375 8.484375q7.796875 5.421875 12.71875 12.328125l-14.203125 14.796875q-5.71875 -5.71875 -11.546875 -9.5625q-5.8125 -3.859375 -11.84375 -5.828125q-6.015625 -1.96875 -12.125 -1.96875q-9.671875 0 -18.0625 3.65625q-8.375 3.640625 -14.59375 10.15625q-6.21875 6.515625 -9.78125 15.5q-3.546875 8.96875 -3.546875 19.625q0 11.25 3.453125 20.421875q3.453125 9.171875 9.765625 15.6875q6.328125 6.515625 15.109375 9.96875q8.78125 3.453125 19.4375 3.453125q6.5 0 12.8125 -1.78125q6.328125 -1.78125 11.84375 -5.125q5.53125 -3.359375 10.0625 -7.890625l10.65625 17.359375q-4.53125 5.328125 -12.328125 9.671875q-7.796875 4.34375 -17.375 6.8125q-9.5625 2.453125 -19.234375 2.453125zm72.8139 -1.96875l0 -19.734375l22.296875 0l0 -98.65625l-22.296875 0l0 -19.734375l65.90625 0l0 19.734375l-22.296875 0l0 98.65625l22.296875 0l0 19.734375l-65.90625 0z" fill-rule="nonzero"/><path fill="#112113" d="m422.911 480.31418l0 -138.125l21.3125 0l0 117.609375l64.71875 0l0 20.515625l-86.03125 0zm148.97162 1.96875q-12.828125 0 -23.390625 -7.09375q-10.546875 -7.109375 -16.859375 -19.34375q-6.3125 -12.234375 -6.3125 -27.625q0 -15.59375 6.40625 -27.71875q6.421875 -12.140625 17.375 -19.046875q10.953125 -6.90625 24.5625 -6.90625q8.09375 0 14.796875 2.375q6.71875 2.359375 11.75 6.609375q5.03125 4.234375 8.28125 9.765625q3.25 5.515625 4.046875 11.828125l-4.546875 -1.578125l0 -26.828125l20.53125 0l0 103.59375l-20.53125 0l0 -24.671875l4.75 -1.375q-1.1875 5.328125 -4.84375 10.359375q-3.640625 5.03125 -9.265625 8.984375q-5.625 3.9375 -12.4375 6.3125q-6.8125 2.359375 -14.3125 2.359375zm5.328125 -18.734375q9.28125 0 16.375 -4.53125q7.109375 -4.546875 11.15625 -12.53125q4.046875 -8.0 4.046875 -18.265625q0 -10.0625 -4.046875 -17.953125q-4.046875 -7.890625 -11.15625 -12.421875q-7.09375 -4.546875 -16.375 -4.546875q-9.078125 0 -16.078125 4.546875q-7.0 4.53125 -11.046875 12.421875q-4.046875 7.890625 -4.046875 17.953125q0 10.265625 4.046875 18.265625q4.046875 7.984375 11.046875 12.53125q7.0 4.53125 16.078125 4.53125zm134.18994 18.734375q-6.703125 0 -13.328125 -2.171875q-6.609375 -2.171875 -12.03125 -5.8125q-5.421875 -3.65625 -9.078125 -8.09375q-3.65625 -4.4375 -4.828125 -8.984375l5.125 -2.75l0 25.25l-20.328125 0l0 -145.42188l20.328125 0l0 66.09375l-3.15625 -1.765625q0.984375 -4.546875 4.34375 -8.78125q3.359375 -4.25 8.578125 -7.703125q5.234375 -3.453125 11.34375 -5.515625q6.125 -2.078125 12.4375 -2.078125q14.015625 0 24.859375 6.90625q10.859375 6.90625 17.171875 19.046875q6.3125 12.125 6.3125 27.71875q0 15.59375 -6.21875 27.828125q-6.21875 12.234375 -17.078125 19.234375q-10.84375 7.0 -24.453125 7.0zm-3.359375 -18.546875q9.078125 0 16.171875 -4.625q7.109375 -4.640625 11.25 -12.625q4.15625 -8.0 4.15625 -18.265625q0 -10.0625 -4.046875 -18.046875q-4.046875 -8.0 -11.15625 -12.53125q-7.09375 -4.546875 -16.375 -4.546875q-9.265625 0 -16.375 4.546875q-7.109375 4.53125 -11.25 12.53125q-4.140625 7.984375 -4.140625 18.046875q0 10.265625 4.140625 18.265625q4.140625 7.984375 11.25 12.625q7.109375 4.625 16.375 4.625z" fill-rule="nonzero"/><path fill="#000000" fill-opacity="0.0" d="m183.1524 506.30573l576.0 0l0 51.716553l-576.0 0z" fill-rule="evenodd"/><path fill="#112113" d="m200.59872 540.9057l0 -19.078125l6.1875 0q3.515625 0 4.578125 0.28125q1.640625 0.4375 2.75 1.875q1.109375 1.4375 1.109375 3.703125q0 1.765625 -0.640625 2.96875q-0.640625 1.1875 -1.625 1.875q-0.984375 0.6875 -2.0 0.90625q-1.375 0.265625 -4.0 0.265625l-2.5 0l0 7.203125l-3.859375 0zm3.859375 -15.859375l0 5.421875l2.109375 0q2.265625 0 3.03125 -0.296875q0.78125 -0.296875 1.21875 -0.9375q0.4375 -0.640625 0.4375 -1.484375q0 -1.046875 -0.625 -1.71875q-0.609375 -0.671875 -1.546875 -0.84375q-0.6875 -0.140625 -2.765625 -0.140625l-1.859375 0zm13.9357605 15.859375l0 -19.078125l8.109375 0q3.0625 0 4.4375 0.515625q1.390625 0.515625 2.21875 1.828125q0.84375 1.3125 0.84375 3.0q0 2.15625 -1.265625 3.5625q-1.265625 1.390625 -3.78125 1.75q1.25 0.734375 2.0625 1.609375q0.8125 0.859375 2.203125 3.09375l2.328125 3.71875l-4.609375 0l-2.78125 -4.15625q-1.484375 -2.21875 -2.03125 -2.796875q-0.546875 -0.578125 -1.171875 -0.796875q-0.609375 -0.21875 -1.921875 -0.21875l-0.78125 0l0 7.96875l-3.859375 0zm3.859375 -11.015625l2.84375 0q2.765625 0 3.453125 -0.234375q0.703125 -0.234375 1.09375 -0.796875q0.390625 -0.578125 0.390625 -1.4375q0 -0.96875 -0.515625 -1.546875q-0.515625 -0.59375 -1.453125 -0.75q-0.46875 -0.078125 -2.8125 -0.078125l-3.0 0l0 4.84375zm14.59404 1.59375q0 -2.921875 0.875 -4.890625q0.65625 -1.46875 1.78125 -2.625q1.125 -1.15625 2.46875 -1.71875q1.78125 -0.75 4.109375 -0.75q4.21875 0 6.75 2.625q2.53125 2.609375 2.53125 7.265625q0 4.625 -2.515625 7.234375q-2.515625 2.609375 -6.71875 2.609375q-4.25 0 -6.765625 -2.59375q-2.515625 -2.609375 -2.515625 -7.15625zm3.96875 -0.125q0 3.234375 1.5 4.90625q1.5 1.671875 3.796875 1.671875q2.3125 0 3.78125 -1.65625q1.484375 -1.65625 1.484375 -4.984375q0 -3.28125 -1.4375 -4.890625q-1.4375 -1.609375 -3.828125 -1.609375q-2.375 0 -3.84375 1.640625q-1.453125 1.625 -1.453125 4.921875zm29.74971 2.53125l3.75 1.1875q-0.859375 3.125 -2.859375 4.640625q-2.0 1.515625 -5.078125 1.515625q-3.796875 0 -6.25 -2.59375q-2.4375 -2.609375 -2.4375 -7.109375q0 -4.765625 2.453125 -7.390625q2.46875 -2.640625 6.46875 -2.640625q3.5 0 5.6875 2.0625q1.3125 1.234375 1.953125 3.515625l-3.8125 0.921875q-0.34375 -1.484375 -1.421875 -2.34375q-1.0625 -0.859375 -2.59375 -0.859375q-2.125 0 -3.453125 1.53125q-1.3125 1.515625 -1.3125 4.921875q0 3.609375 1.296875 5.15625q1.296875 1.53125 3.390625 1.53125q1.53125 0 2.640625 -0.96875q1.109375 -0.984375 1.578125 -3.078125zm7.0471497 7.015625l0 -19.078125l14.15625 0l0 3.21875l-10.296875 0l0 4.234375l9.578125 0l0 3.21875l-9.578125 0l0 5.1875l10.65625 0l0 3.21875l-14.515625 0zm16.81076 -6.203125l3.75 -0.375q0.328125 1.890625 1.359375 2.78125q1.046875 0.875 2.796875 0.875q1.859375 0 2.796875 -0.78125q0.953125 -0.78125 0.953125 -1.84375q0 -0.671875 -0.40625 -1.140625q-0.390625 -0.484375 -1.375 -0.828125q-0.671875 -0.234375 -3.09375 -0.84375q-3.09375 -0.765625 -4.34375 -1.890625q-1.75 -1.5625 -1.75 -3.828125q0 -1.46875 0.828125 -2.734375q0.828125 -1.265625 2.375 -1.921875q1.5625 -0.671875 3.75 -0.671875q3.59375 0 5.40625 1.578125q1.828125 1.578125 1.921875 4.203125l-3.859375 0.171875q-0.25 -1.46875 -1.0625 -2.109375q-0.8125 -0.65625 -2.4375 -0.65625q-1.6875 0 -2.625 0.6875q-0.609375 0.453125 -0.609375 1.1875q0 0.671875 0.5625 1.15625q0.734375 0.609375 3.546875 1.28125q2.8125 0.65625 4.15625 1.375q1.34375 0.703125 2.109375 1.9375q0.765625 1.234375 0.765625 3.03125q0 1.640625 -0.921875 3.078125q-0.90625 1.4375 -2.578125 2.140625q-1.65625 0.6875 -4.140625 0.6875q-3.625 0 -5.5625 -1.671875q-1.9375 -1.671875 -2.3125 -4.875zm17.77951 0l3.75 -0.375q0.328125 1.890625 1.359375 2.78125q1.046875 0.875 2.796875 0.875q1.859375 0 2.796875 -0.78125q0.953125 -0.78125 0.953125 -1.84375q0 -0.671875 -0.40625 -1.140625q-0.390625 -0.484375 -1.375 -0.828125q-0.671875 -0.234375 -3.09375 -0.84375q-3.09375 -0.765625 -4.34375 -1.890625q-1.75 -1.5625 -1.75 -3.828125q0 -1.46875 0.828125 -2.734375q0.828125 -1.265625 2.375 -1.921875q1.5625 -0.671875 3.75 -0.671875q3.59375 0 5.40625 1.578125q1.828125 1.578125 1.921875 4.203125l-3.859375 0.171875q-0.25 -1.46875 -1.0625 -2.109375q-0.8125 -0.65625 -2.4375 -0.65625q-1.6875 0 -2.625 0.6875q-0.609375 0.453125 -0.609375 1.1875q0 0.671875 0.5625 1.15625q0.734375 0.609375 3.546875 1.28125q2.8125 0.65625 4.15625 1.375q1.34375 0.703125 2.109375 1.9375q0.765625 1.234375 0.765625 3.03125q0 1.640625 -0.921875 3.078125q-0.90625 1.4375 -2.578125 2.140625q-1.65625 0.6875 -4.140625 0.6875q-3.625 0 -5.5625 -1.671875q-1.9375 -1.671875 -2.3125 -4.875zm18.638885 6.203125l0 -19.078125l3.84375 0l0 19.078125l-3.84375 0zm7.5622253 0l0 -19.078125l3.75 0l7.796875 12.734375l0 -12.734375l3.578125 0l0 19.078125l-3.859375 0l-7.6875 -12.4375l0 12.4375l-3.578125 0zm28.0784 -7.015625l0 -3.21875l8.3125 0l0 7.609375q-1.21875 1.171875 -3.515625 2.0625q-2.296875 0.890625 -4.65625 0.890625q-2.984375 0 -5.21875 -1.25q-2.21875 -1.265625 -3.34375 -3.59375q-1.109375 -2.34375 -1.109375 -5.09375q0 -2.984375 1.25 -5.296875q1.25 -2.3125 3.65625 -3.546875q1.828125 -0.953125 4.5625 -0.953125q3.546875 0 5.546875 1.5q2.0 1.484375 2.578125 4.109375l-3.828125 0.71875q-0.40625 -1.40625 -1.515625 -2.21875q-1.109375 -0.8125 -2.78125 -0.8125q-2.53125 0 -4.015625 1.609375q-1.484375 1.59375 -1.484375 4.734375q0 3.40625 1.5 5.109375q1.515625 1.6875 3.96875 1.6875q1.203125 0 2.421875 -0.46875q1.21875 -0.484375 2.09375 -1.15625l0 -2.421875l-4.421875 0zm19.31192 7.015625l0 -19.078125l3.859375 0l0 8.46875l7.78125 -8.46875l5.1875 0l-7.1875 7.421875l7.578125 11.65625l-4.984375 0l-5.25 -8.953125l-3.125 3.1875l0 5.765625l-3.859375 0zm19.250305 0l0 -19.078125l3.75 0l7.796875 12.734375l0 -12.734375l3.578125 0l0 19.078125l-3.859375 0l-7.6875 -12.4375l0 12.4375l-3.578125 0zm18.42215 -9.421875q0 -2.921875 0.875 -4.890625q0.65625 -1.46875 1.78125 -2.625q1.125 -1.15625 2.46875 -1.71875q1.78125 -0.75 4.109375 -0.75q4.21875 0 6.75 2.625q2.53125 2.609375 2.53125 7.265625q0 4.625 -2.515625 7.234375q-2.515625 2.609375 -6.71875 2.609375q-4.25 0 -6.765625 -2.59375q-2.515625 -2.609375 -2.515625 -7.15625zm3.96875 -0.125q0 3.234375 1.5 4.90625q1.5 1.671875 3.796875 1.671875q2.3125 0 3.78125 -1.65625q1.484375 -1.65625 1.484375 -4.984375q0 -3.28125 -1.4375 -4.890625q-1.4375 -1.609375 -3.828125 -1.609375q-2.375 0 -3.84375 1.640625q-1.453125 1.625 -1.453125 4.921875zm20.249725 9.546875l-4.546875 -19.078125l3.9375 0l2.875 13.109375l3.5 -13.109375l4.578125 0l3.34375 13.328125l2.921875 -13.328125l3.890625 0l-4.640625 19.078125l-4.09375 0l-3.796875 -14.265625l-3.78125 14.265625l-4.1875 0zm22.565674 0l0 -18.921875l3.84375 0l0 15.703125l9.578125 0l0 3.21875l-13.421875 0zm16.17334 0l0 -19.078125l14.15625 0l0 3.21875l-10.296875 0l0 4.234375l9.578125 0l0 3.21875l-9.578125 0l0 5.1875l10.65625 0l0 3.21875l-14.515625 0zm17.763885 -19.078125l7.046875 0q2.375 0 3.625 0.359375q1.6875 0.5 2.875 1.765625q1.203125 1.25 1.828125 3.078125q0.625 1.828125 0.625 4.515625q0 2.359375 -0.578125 4.0625q-0.71875 2.078125 -2.046875 3.375q-1.0 0.96875 -2.703125 1.515625q-1.28125 0.40625 -3.421875 0.40625l-7.25 0l0 -19.078125zm3.859375 3.21875l0 12.640625l2.875 0q1.609375 0 2.328125 -0.171875q0.9375 -0.234375 1.546875 -0.796875q0.625 -0.5625 1.015625 -1.84375q0.390625 -1.28125 0.390625 -3.5q0 -2.203125 -0.390625 -3.390625q-0.390625 -1.1875 -1.09375 -1.84375q-0.703125 -0.671875 -1.78125 -0.90625q-0.8125 -0.1875 -3.15625 -0.1875l-1.734375 0zm24.281494 8.84375l0 -3.21875l8.3125 0l0 7.609375q-1.21875 1.171875 -3.515625 2.0625q-2.296875 0.890625 -4.65625 0.890625q-2.984375 0 -5.21875 -1.25q-2.21875 -1.265625 -3.34375 -3.59375q-1.109375 -2.34375 -1.109375 -5.09375q0 -2.984375 1.25 -5.296875q1.25 -2.3125 3.65625 -3.546875q1.828125 -0.953125 4.5625 -0.953125q3.546875 0 5.546875 1.5q2.0 1.484375 2.578125 4.109375l-3.828125 0.71875q-0.40625 -1.40625 -1.515625 -2.21875q-1.109375 -0.8125 -2.78125 -0.8125q-2.53125 0 -4.015625 1.609375q-1.484375 1.59375 -1.484375 4.734375q0 3.40625 1.5 5.109375q1.515625 1.6875 3.96875 1.6875q1.203125 0 2.421875 -0.46875q1.21875 -0.484375 2.09375 -1.15625l0 -2.421875l-4.421875 0zm11.85907 7.015625l0 -19.078125l14.15625 0l0 3.21875l-10.296875 0l0 4.234375l9.578125 0l0 3.21875l-9.578125 0l0 5.1875l10.65625 0l0 3.21875l-14.515625 0zm27.88861 0l-4.546875 -19.078125l3.9375 0l2.875 13.109375l3.5 -13.109375l4.578125 0l3.34375 13.328125l2.921875 -13.328125l3.890625 0l-4.640625 19.078125l-4.09375 0l-3.796875 -14.265625l-3.78125 14.265625l-4.1875 0zm22.346924 0l0 -19.078125l3.84375 0l0 19.078125l-3.84375 0zm11.812195 0l0 -15.859375l-5.65625 0l0 -3.21875l15.15625 0l0 3.21875l-5.640625 0l0 15.859375l-3.859375 0zm12.001465 0l0 -19.078125l3.859375 0l0 7.5l7.546875 0l0 -7.5l3.84375 0l0 19.078125l-3.84375 0l0 -8.34375l-7.546875 0l0 8.34375l-3.859375 0zm26.640625 0l0 -19.078125l6.1875 0q3.515625 0 4.578125 0.28125q1.640625 0.4375 2.75 1.875q1.109375 1.4375 1.109375 3.703125q0 1.765625 -0.640625 2.96875q-0.640625 1.1875 -1.625 1.875q-0.984375 0.6875 -2.0 0.90625q-1.375 0.265625 -4.0 0.265625l-2.5 0l0 7.203125l-3.859375 0zm3.859375 -15.859375l0 5.421875l2.109375 0q2.265625 0 3.03125 -0.296875q0.78125 -0.296875 1.21875 -0.9375q0.4375 -0.640625 0.4375 -1.484375q0 -1.046875 -0.625 -1.71875q-0.609375 -0.671875 -1.546875 -0.84375q-0.6875 -0.140625 -2.765625 -0.140625l-1.859375 0zm13.138916 6.4375q0 -2.921875 0.875 -4.890625q0.65625 -1.46875 1.78125 -2.625q1.125 -1.15625 2.46875 -1.71875q1.78125 -0.75 4.109375 -0.75q4.21875 0 6.75 2.625q2.53125 2.609375 2.53125 7.265625q0 4.625 -2.515625 7.234375q-2.515625 2.609375 -6.71875 2.609375q-4.25 0 -6.765625 -2.59375q-2.515625 -2.609375 -2.515625 -7.15625zm3.96875 -0.125q0 3.234375 1.5 4.90625q1.5 1.671875 3.796875 1.671875q2.3125 0 3.78125 -1.65625q1.484375 -1.65625 1.484375 -4.984375q0 -3.28125 -1.4375 -4.890625q-1.4375 -1.609375 -3.828125 -1.609375q-2.375 0 -3.84375 1.640625q-1.453125 1.625 -1.453125 4.921875zm20.249695 9.546875l-4.546875 -19.078125l3.9375 0l2.875 13.109375l3.5 -13.109375l4.578125 0l3.34375 13.328125l2.921875 -13.328125l3.890625 0l-4.640625 19.078125l-4.09375 0l-3.796875 -14.265625l-3.78125 14.265625l-4.1875 0zm22.456299 0l0 -19.078125l14.15625 0l0 3.21875l-10.296875 0l0 4.234375l9.578125 0l0 3.21875l-9.578125 0l0 5.1875l10.65625 0l0 3.21875l-14.515625 0zm17.795166 0l0 -19.078125l8.109375 0q3.0625 0 4.4375 0.515625q1.390625 0.515625 2.21875 1.828125q0.84375 1.3125 0.84375 3.0q0 2.15625 -1.265625 3.5625q-1.265625 1.390625 -3.78125 1.75q1.25 0.734375 2.0625 1.609375q0.8125 0.859375 2.203125 3.09375l2.328125 3.71875l-4.609375 0l-2.78125 -4.15625q-1.484375 -2.21875 -2.03125 -2.796875q-0.546875 -0.578125 -1.171875 -0.796875q-0.609375 -0.21875 -1.921875 -0.21875l-0.78125 0l0 7.96875l-3.859375 0zm3.859375 -11.015625l2.84375 0q2.765625 0 3.453125 -0.234375q0.703125 -0.234375 1.09375 -0.796875q0.390625 -0.578125 0.390625 -1.4375q0 -0.96875 -0.515625 -1.546875q-0.515625 -0.59375 -1.453125 -0.75q-0.46875 -0.078125 -2.8125 -0.078125l-3.0 0l0 4.84375z" fill-rule="nonzero"/><path fill="#000000" fill-opacity="0.0" d="m182.95009 509.3316l576.9134 0" fill-rule="evenodd"/><path stroke="#112113" stroke-width="8.0" stroke-linejoin="round" stroke-linecap="butt" d="m182.95009 509.3316l576.9134 0" fill-rule="evenodd"/><path fill="#000000" fill-opacity="0.0" d="m183.7281 555.7756l576.9134 0" fill-rule="evenodd"/><path stroke="#112113" stroke-width="8.0" stroke-linejoin="round" stroke-linecap="butt" d="m183.7281 555.7756l576.9134 0" fill-rule="evenodd"/><path fill="#112113" d="m611.03534 336.74258c17.280334 10.030762 31.133118 -20.460388 53.19751 -19.934479c22.064331 0.5259094 61.09906 30.139801 79.18866 23.089905c18.0896 -7.0498962 38.877502 -48.394745 29.348877 -65.38925c-9.528687 -16.994507 -67.37311 -19.399582 -86.520874 -36.577744c-19.147766 -17.178177 -7.4159546 -69.60666 -28.365723 -66.49124c-20.94983 3.1154175 -89.5249 57.63324 -97.33295 85.18373c-7.8081055 27.550446 33.204163 70.08832 50.484497 80.11908z" fill-rule="evenodd"/></g></svg>